<svg width="643" height="503" viewBox="0 0 643 503" fill="none" xmlns="http://www.w3.org/2000/svg">
<path d="M596.091 270.343C595.671 271.397 594.707 271.991 593.701 271.991C593.331 271.991 592.905 271.932 592.534 271.692C591.209 270.986 590.674 269.282 591.31 267.804C591.47 267.339 594.658 260.155 602.567 252.971C615.148 204.081 595.033 181.648 594.817 181.407C593.752 180.289 593.701 178.409 594.765 177.22C595.773 176.047 597.467 176.047 598.531 177.166C599.379 178.112 619.24 200.255 609.259 247.838C611.7 246.198 614.459 244.663 617.545 243.369C618.921 242.775 620.463 243.539 620.992 245.074C621.522 246.552 620.833 248.256 619.457 248.843C614.089 251.141 609.846 254.087 606.442 257.086C599.062 263.57 596.143 270.222 596.091 270.343V270.343ZM567.949 249.308C560.731 288.188 528.98 302.321 519.209 305.798C519.318 313.866 520.375 322.881 523.508 331.533C524.041 333.005 523.403 334.715 522.023 335.366C521.704 335.48 521.387 335.536 521.068 335.536C520.005 335.536 518.999 334.893 518.573 333.712C515.175 324.232 513.95 314.509 513.845 305.798C513.475 305.447 513.261 304.974 513.157 304.442C512.944 303.38 513.261 302.321 513.901 301.67C514.215 287.772 517.138 277.406 517.351 276.7C517.776 275.115 519.318 274.286 520.694 274.761C522.074 275.285 522.819 276.938 522.393 278.465C522.342 278.651 519.901 287.416 519.367 299.492C529.827 295.434 556.482 281.945 562.747 248.133C567.101 224.697 560.038 207.085 553.349 196.424C544.64 182.643 531.156 172.457 518.891 170.392C517.829 170.214 516.927 169.331 516.662 168.156C516.449 166.977 516.87 165.74 517.776 165.089C517.935 164.976 532.693 153.486 539.386 139.882C540.073 138.469 541.722 137.939 542.994 138.704C544.27 139.468 544.746 141.233 544.057 142.713C539.171 152.667 530.675 161.264 525.42 166.035C537.419 169.982 549.366 179.937 557.702 193.071C564.974 204.667 572.673 223.869 567.949 249.308V249.308ZM471.633 215.217C464.416 217.338 461.441 223.814 461.388 223.869C460.752 225.284 459.159 225.935 457.83 225.171C456.505 224.463 455.975 222.698 456.662 221.218C456.824 220.872 460.752 212.275 470.307 209.56C479.017 207.028 489.208 210.146 500.678 218.808C528.34 239.593 541.775 234.235 541.935 234.235C543.261 233.648 544.799 234.356 545.333 235.89C545.914 237.36 545.277 239.071 543.897 239.651C543.687 239.778 541.402 240.775 537.049 240.775C529.773 240.775 516.713 238.011 497.705 223.63C487.564 215.979 478.804 213.153 471.633 215.217V215.217ZM480.557 346.848C468.451 366.462 440.84 376.414 421.461 368.114C391.835 355.502 367.253 359.038 357.321 377.356C347.765 395.08 325.468 399.732 318.405 400.794C317.29 407.51 311.873 425.598 287.183 432.426C282.459 433.782 277.946 434.306 273.752 434.306C251.929 434.306 238.071 419.345 237.433 418.582C236.373 417.409 236.373 415.586 237.433 414.403C238.441 413.224 240.144 413.224 241.15 414.403C241.895 415.232 259.418 434.017 285.909 426.714C312.035 419.474 313.415 398.206 313.415 397.973C313.521 396.495 314.527 395.321 315.856 395.201C316.123 395.145 342.984 392.437 352.81 374.352C364.116 353.389 391.144 348.913 423.373 362.629C440.311 369.877 465.529 360.749 476.203 343.555C483.955 330.948 482.199 316.63 471.212 303.14C470.257 301.91 470.307 300.087 471.426 298.969C472.485 297.909 474.187 297.966 475.193 299.195C492.45 320.406 485.971 338.13 480.557 346.848V346.848ZM462.662 435.309C462.134 435.849 461.441 436.138 460.805 436.138C460.112 436.138 459.425 435.849 458.893 435.254C457.887 434.079 457.887 432.193 458.946 431.067C482.466 405.927 478.591 369.049 478.538 368.695C478.376 367.055 479.391 365.577 480.823 365.401C482.309 365.168 483.636 366.347 483.794 367.932C484.008 369.586 488.092 408.048 462.662 435.309V435.309ZM436.808 435.141C425.976 436.193 413.76 432.193 409.142 430.483C392.579 453.565 370.968 454.81 366.402 454.81C365.922 454.81 365.66 454.81 365.551 454.81C364.116 454.755 362.951 453.34 363.059 451.743C363.11 450.101 364.331 448.801 365.818 448.912C366.083 448.857 389.5 449.747 406.116 425.187C406.807 424.126 408.082 423.772 409.198 424.237C409.355 424.296 424.116 430.545 436.327 429.245C437.761 429.13 439.09 430.305 439.248 431.959C439.354 433.542 438.293 435.014 436.808 435.141V435.141ZM333.802 340.429C334.492 338.957 350.898 304.915 392.579 302.321C395.71 291.898 401.18 285.184 401.552 284.773C402.56 283.528 404.207 283.473 405.321 284.589C406.384 285.657 406.433 287.545 405.478 288.718C405.374 288.831 400.542 294.84 397.728 304.145C397.832 304.442 397.888 304.737 397.888 305.036C397.938 305.969 397.515 306.803 396.88 307.384C395.659 312.685 395.233 318.815 396.612 325.412C396.986 326.939 396.08 328.536 394.646 328.947C394.436 329.005 394.278 329.005 394.064 329.005C392.841 329.005 391.728 328.118 391.463 326.707C390.029 319.988 390.189 313.747 391.196 308.273C353.711 311.569 338.69 342.782 338.526 343.136C338.048 344.133 337.146 344.726 336.14 344.726C335.766 344.726 335.34 344.614 334.915 344.374C333.643 343.666 333.113 341.899 333.802 340.429V340.429ZM430.649 170.506C443.655 180.756 441.849 192.18 440.098 197.243C435.479 210.676 419.234 220.391 408.505 216.149C407.126 215.569 406.433 213.917 406.912 212.388C407.393 210.854 408.932 210.027 410.312 210.565C418.167 213.68 431.655 205.373 435.16 195.186C437.92 187.176 434.311 179.697 425.073 173.518C422.631 171.862 419.866 170.336 416.684 168.92C386.526 155.317 365.02 187.354 349.36 210.676C343.361 219.685 338.581 226.811 334.119 230.177C320.423 240.713 296.158 237.658 288.404 236.356C285.803 245.363 275.29 274.223 248.955 276.585C247.101 276.755 245.347 276.825 243.7 276.825C216.887 276.825 209.933 257.213 209.614 256.322C209.135 254.795 209.827 253.084 211.207 252.553C212.587 251.966 214.072 252.731 214.605 254.257C214.869 255.029 221.507 273.05 248.535 270.695C275.822 268.285 283.891 232.708 283.946 232.354C284.316 230.828 285.645 229.823 287.028 230.114C287.344 230.177 316.863 236.299 331.095 225.341C334.811 222.512 339.592 215.385 345.109 207.142C360.879 183.64 384.667 148.134 418.7 163.449C421.461 164.679 423.903 165.98 426.027 167.267C429.692 163.617 448.223 143.121 435.692 113.208C425.708 117.266 419.07 126.754 418.596 127.335C418.063 128.105 417.316 128.516 416.47 128.516C415.94 128.516 415.358 128.281 414.876 127.87C413.709 126.924 413.496 125.044 414.398 123.744C414.558 123.453 435 94.4167 460.326 109.842C461.601 110.676 462.079 112.436 461.334 113.851C460.645 115.321 459.052 115.796 457.726 115.034C451.672 111.319 445.937 110.676 440.896 111.611C453.05 142.003 436.436 164.092 430.649 170.506V170.506ZM249.487 197.894C250.283 197.243 267.701 183.053 288.404 187.354C288.248 176.345 290.53 146.239 318.458 130.758C319.731 130.048 321.324 130.636 322.016 132.114C322.652 133.584 322.122 135.351 320.795 136.057C289.893 153.196 293.716 189.183 293.927 190.71C294.036 191.658 293.663 192.657 293.025 193.3C292.338 193.949 291.432 194.19 290.584 193.892C270.777 187.827 252.884 202.489 252.673 202.609C252.246 203.019 251.663 203.197 251.082 203.197C250.283 203.197 249.487 202.787 248.955 202.024C248.107 200.724 248.32 198.899 249.487 197.894V197.894ZM370.384 101.952C370.545 101.655 384.614 71.3232 418.063 76.7477C419.496 77.037 420.504 78.507 420.294 80.104C420.079 81.7519 418.752 82.8054 417.267 82.6353C387.802 77.7426 375.641 103.485 375.161 104.605C374.686 105.6 373.783 106.251 372.776 106.251C372.4 106.251 371.979 106.137 371.605 105.897C370.277 105.189 369.745 103.422 370.384 101.952V101.952ZM490.642 62.8473C491.863 61.9071 493.511 62.2609 494.307 63.6117C494.679 64.2548 503.176 78.507 505.136 91.6449C509.866 93.1774 521.6 99.243 532.272 122.923C532.961 124.393 532.427 126.16 531.102 126.868C530.732 127.1 530.305 127.221 529.935 127.221C528.922 127.221 527.97 126.571 527.546 125.566C515.494 98.8912 502.59 97.0673 502.482 97.0028C501.21 96.8894 500.204 95.7733 500.094 94.4167C498.979 82.1623 490.008 67.0813 489.9 66.9113C489.053 65.5547 489.423 63.7289 490.642 62.8473V62.8473ZM636.703 257.737C646.746 230.347 647.59 184.59 617.964 168.567C614.14 166.504 611.758 162.028 612.019 157.254C612.077 156.965 613.614 123.22 598.475 105.488C591.412 97.1221 581.808 93.7072 568.639 95.0657C567.311 95.1791 565.986 95.0657 564.764 94.6552C566.837 107.664 568.003 125.695 564.393 145.772C564.181 147.187 563.066 148.19 561.79 148.19C561.633 148.19 561.473 148.133 561.263 148.133C559.829 147.782 558.923 146.239 559.191 144.656C563.385 121.324 560.731 100.715 558.022 88.1713V88.052L557.913 87.882C555.257 80.925 544.799 60.3726 532.693 57.4796C526.164 55.8982 520.537 55.3039 515.12 54.78C504.13 53.6619 493.779 52.5399 483.743 43.1708C479.6 39.2261 472.218 36.6946 464.946 36.6946C458.31 36.6946 452.787 38.7588 449.444 42.4651C447.317 44.8264 444.399 46.1205 441.426 45.9426C438.448 45.7647 435.692 44.2947 433.777 41.7555C433.727 41.7008 430.434 37.5137 424.966 33.4556C403.994 29.8647 374.527 35.2227 354.509 55.2472C332.794 76.9236 329.608 96.1818 329.608 96.3597C329.128 99.3094 326.686 101.6 324.191 101.301C289.308 100.129 273.91 141.771 273.752 142.181C273.008 144.191 271.361 145.596 269.399 145.829C238.604 149.365 218.638 198.248 218.48 198.721C217.738 200.554 216.143 201.84 214.337 202.136C212.902 202.376 178.128 208.555 163.581 246.776C148.449 286.54 162.041 304.682 162.624 305.447C163.685 306.803 164.109 308.562 163.845 310.21C170.27 315.16 186.73 325.229 217.947 328.595C218.48 328.474 218.957 328.536 219.436 328.763H219.489C224.215 329.244 229.257 329.527 234.621 329.654C280.496 330.771 293.289 305.617 296.211 297.612C296.69 296.255 296.9 295.434 296.954 295.194C297.115 294.43 297.592 293.781 298.176 293.37C298.814 292.96 299.555 292.903 300.248 293.073C300.403 293.137 317.503 297.669 346.704 280.232C350.528 277.941 354.35 275.525 358.278 273.107C386.261 255.503 418.012 235.591 444.292 262.276C445.354 263.392 445.46 265.272 444.452 266.453C443.442 267.69 441.798 267.749 440.683 266.629C417.267 242.834 388.596 260.806 360.879 278.232C356.953 280.707 353.078 283.117 349.254 285.424C324.991 299.903 308.474 300.087 302 299.322C304.176 306.676 310.387 334.064 292.07 356.21C291.538 356.861 290.797 357.213 290.103 357.213C289.469 357.213 288.778 356.917 288.299 356.393C287.183 355.332 287.13 353.444 288.14 352.265C301.416 336.244 300.088 316.518 298.176 306.385C291.751 317.932 275.664 335.601 237.433 335.601C236.482 335.601 235.523 335.601 234.515 335.536C228.779 335.423 223.366 335.069 218.376 334.541H218.319C213.385 335.89 185.241 345.435 174.623 388.074C180.251 392.254 187.314 395.674 194.747 394.855C196.232 394.791 197.508 395.909 197.612 397.5C197.776 399.154 196.711 400.567 195.226 400.737C194.32 400.849 193.418 400.849 192.57 400.849C184.075 400.849 176.325 396.679 170.374 392.083C170.057 391.964 169.738 391.73 169.526 391.378L169.368 391.257C162.837 386.018 158.694 380.474 158.377 380.007C157.42 378.772 157.635 376.883 158.751 375.886C159.864 374.825 161.563 375.003 162.465 376.297C162.518 376.359 165.383 380.185 170.004 384.364C178.342 353.444 195.49 339.256 206.853 333.061C181.58 328.763 167.456 320.223 161.031 315.216C105.281 382.779 151.156 452.689 153.173 455.685C153.864 456.747 154.236 457.935 154.236 459.165V459.222C156.946 461.696 160.076 463.938 163.581 465.641C168.943 468.3 176.161 469.65 185.136 469.65C199.897 469.65 214.55 465.938 219.382 464.582C211.577 453.277 203.505 436.073 198.889 410.517C198.727 409.631 198.941 408.683 199.42 408.048C199.843 407.51 200.375 407.157 200.958 407.043C202.393 406.746 203.824 407.751 204.091 409.334C208.921 436.259 217.842 453.34 225.861 463.874C228.142 464.349 230.321 465.641 231.913 467.649C232.017 467.649 238.923 473.771 262.176 480.787C275.503 484.788 289.52 486.965 301.945 488.789C317.131 491.094 329.128 492.918 336.51 497.683C339.909 499.918 350.528 502.985 363.482 502.985C372.985 502.985 386.737 501.396 398.419 493.793C413.975 483.672 418.382 478.191 419.389 476.713C419.922 474.832 420.93 473.122 422.257 471.707C424.437 469.474 427.301 468.358 430.275 468.583C430.434 468.653 431.815 468.71 434.099 468.71C440.364 468.71 456.505 467.948 471.263 460.694C480.767 456.104 487.669 448.801 493.779 442.381C501.21 434.547 508.271 427.124 518.199 426.36C524.573 425.83 529.244 417.523 529.299 417.409C529.882 416.348 530.571 415.343 531.421 414.637C534.926 407.63 539.703 395.731 542.623 378.24C544.799 365.342 545.969 349.437 544.959 330.176C544.906 328.536 546.024 327.123 547.458 327.058C548.887 326.939 550.216 328.177 550.267 329.822C551.173 346.905 550.431 361.456 548.783 373.644C553.19 370.521 559.934 364.517 565.455 354.681C566.195 353.27 567.843 352.859 569.119 353.678C570.338 354.562 570.765 356.337 569.965 357.744C561.846 372.415 551.278 379.186 547.613 381.182C545.276 394.374 541.935 404.385 538.853 411.576H539.067C539.171 411.576 540.022 411.639 541.352 411.639C550.75 411.639 582.818 409.753 600.124 385.551C619.61 358.329 605.331 325.764 605.168 325.412C603.256 321.225 603.789 316.108 606.551 312.509C606.761 312.275 626.033 286.951 636.703 257.737" fill="#F9F9F9"/>
<path d="M110.696 267.098C111.123 268.695 110.381 270.343 109.001 270.873C108.737 270.986 108.418 271.049 108.15 271.049C107.034 271.049 106.025 270.222 105.655 269.049C105.494 268.568 92.1141 223.276 130.662 195.838C167.984 169.153 184.235 155.022 182.586 131.696C181.419 114.494 186.889 98.2481 196.555 90.2864C203.135 84.9343 210.886 83.9373 219.012 87.4012C220.34 87.9974 221.029 89.7644 220.497 91.2344C219.965 92.7689 218.425 93.5332 217.045 92.9448C210.73 90.173 204.728 90.9354 199.737 95.0658C191.615 101.718 186.838 116.263 187.895 131.223C189.811 159.205 169.526 175.099 133.53 200.779C98.5425 225.694 110.168 265.458 110.696 267.098V267.098ZM152.803 92.9448C152.271 93.7072 151.475 94.1177 150.678 94.1177C150.095 94.1177 149.566 93.8851 149.032 93.4668C147.917 92.4718 147.704 90.6402 148.606 89.354C148.874 88.9356 154.874 80.5732 164.591 79.455C166.34 73.5087 172.392 57.0711 188.852 51.0055C190.232 50.4816 191.721 51.3007 192.199 52.8938C192.676 54.4263 191.88 56.0722 190.5 56.6039C173.507 62.9041 169.262 82.7508 169.207 82.9893C168.943 84.2833 167.879 85.2881 166.659 85.2881C158.377 85.2881 152.858 92.8881 152.803 92.9448V92.9448ZM85.8513 288.124C72.5222 299.438 77.6748 317.521 77.888 318.229C78.362 319.812 77.6202 321.466 76.1858 321.99C75.9214 322.054 75.6571 322.117 75.3893 322.117C74.2738 322.117 73.2165 321.341 72.8394 320.109C72.7883 319.869 66.2594 297.317 82.6142 283.415C83.7807 282.412 85.4794 282.709 86.3271 283.954C87.2275 285.24 87.0178 287.127 85.8513 288.124V288.124ZM151.901 308.797C147.334 299.903 140.112 278.057 153.76 242.183C168.303 204.016 200.111 193.482 209.933 191.064C214.869 180.108 233.983 141.419 264.035 134.816C261.54 130.048 254.264 119.565 238.071 115.321C236.639 114.975 235.786 113.378 236.107 111.793C236.424 110.196 237.858 109.199 239.293 109.609C255.328 113.788 263.662 123.685 267.431 129.753C274.177 116.326 290.849 90.8806 320.263 89.524C322.548 81.4567 329.234 64.6086 347.392 46.4724C359.928 33.9228 374.948 26.741 389.55 23.2596C389.337 23.0348 389.072 22.7377 388.863 22.4973C388.704 22.2647 369.801 -1.64645e-05 348.777 -1.64645e-05C345.166 -1.64645e-05 341.659 0.650922 338.313 2.00752C337.359 2.36134 336.404 2.77178 335.502 3.12559C335.185 3.88795 334.545 4.4197 333.802 4.59758C333.322 4.709 287.767 16.9047 265.683 56.6039C270.406 58.6036 275.239 61.9639 279.648 67.2026C280.654 68.3833 280.549 70.2638 279.484 71.3819C279.007 71.9175 278.318 72.1521 277.682 72.1521C276.993 72.1521 276.247 71.8628 275.768 71.2118C271.521 66.149 266.848 63.1367 262.282 61.4967C262.018 61.6101 261.753 61.6667 261.434 61.6667C261.008 61.6667 260.583 61.5534 260.159 61.313C259.841 61.1429 259.628 60.9024 259.418 60.6073C248.851 57.7201 239.612 61.2563 239.028 61.4967C237.594 62.0186 236.107 61.2562 235.631 59.7218C235.099 58.1931 235.842 56.4827 237.22 55.953C237.858 55.6578 248.32 51.6564 260.425 54.7801C270.192 36.638 284.21 23.9106 297.328 15.2588C288.618 16.8481 279.38 17.6124 267.805 17.6124C264.3 17.6124 260.529 17.5556 256.444 17.4364H254.638C228.725 17.4364 219.276 33.6336 218.853 34.3314C216.517 38.5185 211.951 40.8173 207.593 39.8203C207.489 39.7637 199.314 37.9321 188.005 37.9321C171.438 37.9321 148.713 41.8142 134.591 60.4372C111.709 90.5835 118.927 109.9 119.246 110.733C120.362 113.497 120.469 116.799 119.511 119.684C133.37 123.22 151.156 130.99 164.217 148.249C165.174 149.486 165.012 151.308 163.9 152.37C163.422 152.843 162.837 153.077 162.201 153.077C161.456 153.077 160.716 152.723 160.183 152.018C147.439 135.232 129.492 128.041 116.113 124.923C114.733 126.217 113.086 127.1 111.336 127.397C110.964 127.454 73.109 134.757 62.9677 167.683C52.1356 203.019 52.8229 215.514 52.8775 215.627C53.3039 218.808 52.5585 221.806 50.7558 224.279C55.2141 224.819 59.7288 226.168 63.1774 229.053C65.5669 226.289 68.8587 223.574 73.3222 221.163C74.6474 220.518 76.2404 221.099 76.8783 222.577C77.5127 224.054 76.9823 225.814 75.6571 226.521C59.5667 235.126 62.8038 247.074 62.8584 247.195C63.2849 248.729 62.5395 250.369 61.1051 250.905C60.8425 250.964 60.5764 251.02 60.3121 251.02C59.1966 251.02 58.1323 250.256 57.764 248.962C57.7094 248.843 55.7974 241.716 59.9949 233.77C53.6193 228.466 40.2391 229.704 35.4108 230.699C35.1429 230.757 34.9297 230.757 34.6654 230.699C28.6141 233.414 21.7645 239.892 21.0738 255.262C23.9954 267.393 29.5692 282.298 39.9237 292.365C41.0392 293.484 41.1432 295.307 40.1881 296.553C39.6559 297.202 38.9122 297.555 38.1703 297.555C37.5342 297.555 36.8963 297.317 36.417 296.848C28.1365 288.773 22.6668 278.111 19.1653 267.988C15.3396 275.695 -11.4736 332.418 5.67762 368.757C20.9169 401.275 45.3406 403.806 52.3999 403.806H52.4545C53.1418 403.806 53.6193 403.742 53.7797 403.742C55.1595 403.621 56.4882 403.806 57.7094 404.217C66.9467 396.325 76.4536 381.068 73.2165 352.265C64.1342 347.556 60.5764 338.662 60.5235 338.549C59.9403 337.006 60.5764 335.304 61.9033 334.659C63.2849 334.064 64.825 334.715 65.4083 336.185C65.5669 336.654 68.5943 344.02 76.5047 347.497L76.6651 347.556C80.7533 349.323 86.0628 350.029 92.9652 348.262C94.3996 347.853 95.7794 348.858 96.1512 350.439C96.4701 352.038 95.5679 353.622 94.1335 353.976C90.9475 354.797 88.024 355.15 85.3191 355.15C82.9296 355.15 80.6987 354.859 78.7356 354.386C81.1798 382.368 71.9918 398.384 62.3844 407.34C63.7096 408.867 64.6664 410.812 65.0893 412.99C65.4083 414.403 68.7001 427.887 82.1331 430.416C84.8927 430.897 87.9747 431.196 91.2664 431.196C107.406 431.196 123.763 425.066 123.92 425.002C125.352 424.478 126.838 424.237 128.272 424.415C120.043 394.437 118.025 350.908 151.901 308.797" fill="#F9F9F9"/>
</svg>
