<svg width="314" height="426" viewBox="0 0 314 426" fill="none" xmlns="http://www.w3.org/2000/svg">
<path fill-rule="evenodd" clip-rule="evenodd" d="M275.43 362.208C274.751 362.487 273.04 361.581 271.07 360.55C266.079 357.916 259.831 354.633 254.666 361.581C251.701 365.577 250.985 371.751 250.27 378.017C249.309 386.427 248.316 394.974 241.216 395.815C237.36 396.253 232.756 395.44 227.979 394.215C226.858 393.686 225.64 393.286 224.571 392.778C222.403 391.753 220.326 390.542 218.305 389.257C213.925 386.471 210.01 382.986 206.445 379.228C199.591 372.014 194.099 363.001 190.123 353.899C189.848 353.266 188.742 353.733 188.999 354.377C192.893 364.13 197.654 373.115 204.627 381.047C207.807 384.663 211.448 387.821 215.37 390.595C207.728 388.44 200.817 387.099 196.44 390.056C192.219 392.903 189.846 396.892 187.595 400.682C185.219 404.662 183.005 408.393 178.832 409.721C175.134 410.88 169.758 409.144 164.632 407.198C162.991 405.933 161.548 404.397 160.218 402.838C156.552 398.537 153.734 393.372 151.024 388.44C150.721 387.886 149.945 388.371 150.195 388.927C152.815 394.704 155.503 400.324 159.562 405.253C155.344 403.668 151.65 402.552 149.188 403.508C146.189 404.694 144.427 408.082 142.541 411.707C140.675 415.304 138.648 419.199 135.388 420.344C134.07 420.82 132.59 420.482 130.99 419.728C130.967 419.553 130.888 419.38 130.722 419.239C129.307 418.017 127.542 417.315 126.065 416.158C124.16 414.667 122.629 412.721 121.253 410.753C118.489 406.795 116.481 402.325 114.336 398.019C111.884 393.099 109.085 388.431 105.876 383.958C103.925 381.239 102.034 378.484 100.191 375.693C98.6051 373.295 97.3667 370.497 95.3787 368.406C95.2023 368.221 94.9342 368.417 94.9765 368.639C95.5181 371.484 97.4179 374.016 98.9385 376.427C100.921 379.564 103.061 382.594 105.024 385.744C108.025 390.564 110.666 395.44 113.005 400.608C114.922 404.847 116.952 409.056 119.625 412.875C116.713 411.525 113.629 410.836 110.313 411.781C104.137 413.543 98.3969 413.801 93.1102 412.81C82.2387 410.784 73.1488 403.453 65.8017 393.229C58.2987 382.813 52.5925 369.412 48.6152 355.508C42.1071 332.72 40.2922 308.778 42.9614 294.505C43.1883 293.214 42.4896 291.714 41.3733 291.191C40.2576 290.651 39.1579 291.277 38.9132 292.568C38.5005 294.782 38.1912 297.223 37.981 299.831C32.5911 292.193 18.0003 269.576 14.3469 243.697C13.2987 236.175 13.1417 228.706 13.7177 221.677C14.5902 211.137 17.1361 201.643 20.8365 194.576C24.4126 187.757 29.0197 183.306 34.185 182.572C34.9518 182.468 35.7373 182.449 36.5415 182.504C42.0182 182.955 41.5834 192.627 41.0935 203.721C40.4624 217.914 39.7443 234.02 50.0568 241.644C49.0308 247.373 48.5884 251.174 48.5629 251.861V251.947C48.545 253.326 49.4517 254.655 50.5867 254.935C51.7216 255.212 52.6642 254.321 52.698 252.961V252.944C52.7504 251.162 55.8387 227.068 65.4348 203.201C74.9269 179.572 90.8064 156.398 116.421 156.398C116.942 156.398 117.432 156.418 117.887 156.435C117.958 156.435 118.02 156.425 118.087 156.418C121.599 156.308 139.323 158.436 152.836 172.558C160.287 180.323 166.431 191.805 168.156 208.692C173.286 259.121 179.043 271.143 179.063 271.176C179.671 272.485 180.945 273.117 181.924 272.593C182.884 272.071 183.18 270.585 182.568 269.277C182.559 269.257 181.002 266.015 178.781 255.209C178.976 255.219 179.17 255.203 179.359 255.142C179.412 255.124 199.442 248.775 200.437 225.565C200.714 218.985 200.488 213.719 200.316 209.602C200.192 206.655 200.086 204.349 200.243 202.675C200.453 200.302 201.536 199.502 205.043 199.812C205.184 199.83 205.339 199.847 205.516 199.881C209.547 200.65 214.639 206.147 218.548 214.226C222.63 222.636 225.338 233.714 224.29 245.233C224.133 246.96 223.907 248.654 223.576 250.329C221.062 263.641 212.826 272.873 205.793 280.758C198.85 288.555 192.97 295.133 193.997 303.842C194.957 311.958 196.528 320.697 200.053 328.496C203.681 336.523 209.317 343.398 218.287 347.393C227.079 351.305 232.927 351.756 236.975 350.363C241.232 348.895 243.447 345.512 245.017 341.881C245.47 340.8 246.605 339.787 248.141 338.949C249.868 338.041 252.066 337.43 254.458 337.307C256.813 337.187 259.325 337.552 261.699 338.563C264.735 339.871 267.58 342.265 269.639 346.12C273.444 353.273 275.603 357.602 276.303 360.166C276.619 361.332 276.303 361.844 275.43 362.208V362.208ZM99.3742 215.342C98.6404 216.651 97.716 217.47 96.7723 217.47C96.042 217.47 95.3417 216.859 94.8019 215.849C94.0345 214.469 93.5653 212.462 93.5653 210.197C93.5653 207.821 94.0681 205.676 94.9236 204.155C95.638 202.832 96.5641 202.029 97.5061 202.029C98.2399 202.029 98.9367 202.638 99.4783 203.635C100.247 205.03 100.734 207.018 100.734 209.306C100.734 211.678 100.212 213.82 99.3742 215.342ZM102.913 218.674C101.59 221.082 99.6882 222.568 97.5061 222.568C95.1159 222.568 92.9867 220.89 91.4856 218.168C90.212 215.831 89.4111 212.707 89.4111 209.306C89.4111 206.005 90.159 203.005 91.3639 200.825C91.7854 200.059 92.2723 199.397 92.798 198.84C91.9601 199.209 91.1804 199.741 90.4907 200.435C88.8996 202.033 87.3437 204.03 86.7157 206.245C86.1195 208.336 86.6593 210.25 86.4317 212.329C86.4105 212.518 86.1759 212.668 86.0207 212.5C84.2126 210.497 85.2463 206.916 86.0595 204.677C87.0174 202.054 88.5926 199.519 90.9546 197.935C93.2425 196.4 95.8585 195.402 98.5257 196.681C100.692 197.725 102.923 199.946 103.322 202.417C104.283 204.592 104.871 207.295 104.871 210.197C104.871 213.494 104.119 216.494 102.913 218.674V218.674ZM130.066 214.887C129.352 216.196 128.427 217.016 127.484 217.016C126.751 217.016 126.051 216.388 125.494 215.393C124.728 214 124.255 212.012 124.255 209.72C124.255 207.35 124.779 205.22 125.615 203.688C126.349 202.375 127.256 201.558 128.217 201.558C128.932 201.558 129.629 202.172 130.189 203.181C130.955 204.575 131.424 206.563 131.424 208.835C131.424 211.225 130.904 213.354 130.066 214.887V214.887ZM133.79 201.47C134.896 203.732 135.563 206.621 135.563 209.72C135.563 213.023 134.813 216.02 133.606 218.219C132.299 220.613 130.38 222.097 128.217 222.097C125.808 222.097 123.68 220.419 122.197 217.697C120.907 215.374 120.119 212.238 120.119 208.835C120.119 205.556 120.872 202.555 122.073 200.354C122.382 199.786 122.724 199.274 123.098 198.819C122.347 199.188 121.638 199.701 121.015 200.348C119.551 201.853 118.311 203.663 117.981 205.787C117.704 207.591 118.261 209.327 118.103 211.096C118.069 211.444 117.669 211.663 117.393 211.391C115.744 209.747 116.979 206.155 117.139 204.183C117.341 201.726 119.496 199.389 121.414 198.064C123.458 196.649 126.291 195.464 128.72 196.619C130.025 196.944 131.22 197.787 132.243 199.013C132.991 199.708 133.582 200.518 133.79 201.47ZM104.033 243.399C105.76 239.211 108.411 236.452 111.57 236.106C114.587 235.757 117.607 237.749 120.068 241.238C122.756 245.022 124.762 250.518 125.476 256.819C126.192 263.207 125.421 269.1 123.594 273.517C121.883 277.687 119.23 280.464 116.053 280.81C113.054 281.141 110.016 279.153 107.557 275.678C104.871 271.873 102.863 266.377 102.165 260.081C101.45 253.709 102.219 247.796 104.033 243.399ZM117.152 285.869C112.601 286.394 108.15 283.567 104.643 278.592C101.382 273.99 98.9543 267.46 98.0812 260.1C98.0653 259.957 98.0459 259.804 98.0459 259.663C97.2644 252.388 98.1676 245.597 100.281 240.483C102.498 235.094 106.074 231.516 110.489 231.03C115.042 230.521 119.477 233.332 122.98 238.302C126.28 242.965 128.738 249.559 129.56 257.01C130.398 264.389 129.489 271.268 127.362 276.415C125.127 281.805 121.549 285.384 117.152 285.869V285.869ZM133.642 287.476C134.409 288.663 134.342 290.235 133.504 290.968C117.415 305.064 102.339 292.013 102.306 291.978C101.293 291.103 100.889 289.515 101.433 288.4C101.955 287.301 103.213 287.089 104.225 287.949C104.257 287.98 116.804 298.867 130.729 286.655C131.583 285.904 132.876 286.271 133.642 287.476ZM293.194 157.046C289.006 166.065 282.393 173.167 274.592 177.778C266.093 182.782 256.22 184.809 246.536 183.095C235.578 181.175 219.734 174.493 201.781 166.905C151.737 145.77 85.5709 117.857 58.4035 164.184C38.2856 147.379 41.1087 116.066 46.2566 99.3857C52.5463 78.9727 79.4233 57.7729 97.9171 50.089C149.705 28.5541 225.701 28.5188 262.1 64.6878C284.137 86.5703 294.605 107.315 297.295 125.149C299.126 137.276 297.364 148.113 293.194 157.046ZM264.352 60.957C287.454 83.919 298.48 105.957 301.359 125.096C303.383 138.444 301.446 150.346 296.895 160.134C292.373 169.85 285.256 177.496 276.896 182.431C267.769 187.808 257.145 189.992 246.675 188.14C235.334 186.148 219.3 179.383 201.101 171.699C151.613 150.815 86.0083 123.108 60.9507 169.279C60.4092 170.288 59.2414 170.445 58.28 169.679H58.2641C34.4124 150.589 36.3272 116.414 42.3462 96.8738C49.1072 74.9808 76.1723 53.4952 95.9961 45.238C148.868 23.2515 226.574 23.4402 264.352 60.957V60.957ZM173.217 269.977C173.295 270.005 173.346 270.144 173.243 270.183C172.935 270.323 172.642 270.559 172.319 270.712C171.968 270.878 171.599 270.996 171.238 271.139C170.509 271.43 169.514 271.887 168.8 271.388C168.539 271.208 168.456 270.917 168.601 270.63C169.015 269.806 170.209 269.721 171.035 269.642C171.536 269.589 171.991 269.587 172.488 269.649C172.825 269.691 172.928 269.864 173.217 269.977V269.977ZM169.902 263.889C171.019 263.866 171.017 265.593 169.902 265.618C169.23 265.636 168.609 265.796 167.978 266.022C167.458 266.205 166.868 266.315 166.396 265.957C166.235 265.833 166.138 265.669 166.194 265.458C166.531 264.15 168.793 263.907 169.902 263.889V263.889ZM166.964 260.259C166.419 260.308 166.053 260.347 165.609 260.155C165.459 260.084 165.392 259.874 165.44 259.728C165.806 258.497 167.66 258.666 168.673 258.68C169.627 258.687 169.627 260.146 168.673 260.162C168.098 260.166 167.537 260.208 166.964 260.259V260.259ZM168.054 255.246C166.93 254.893 166.138 255.456 165.071 255.657C164.808 255.708 164.566 255.5 164.633 255.219C165.036 253.618 167.145 253.378 168.468 253.745C169.437 254.011 169.015 255.544 168.054 255.246ZM165.006 244.619C165.582 245.163 164.702 246.043 164.131 245.491C163.977 245.341 163.845 245.283 163.624 245.265C163.268 245.24 162.933 245.149 162.666 244.903C162.525 244.773 162.525 244.519 162.666 244.385C163.323 243.781 164.406 244.062 165.006 244.619ZM158.823 190.569C159.768 190.547 159.763 191.994 158.823 192.027C158.482 192.043 158.133 192.121 157.831 192.281C157.51 192.458 157.239 192.731 156.845 192.707C156.519 192.684 156.15 192.421 156.187 192.045C156.3 190.955 157.916 190.583 158.823 190.569V190.569ZM156.445 187.688C156.882 187.282 157.54 187.946 157.096 188.341C156.591 188.792 155.91 188.866 155.258 188.866C154.684 188.866 154.686 187.999 155.258 187.979C155.646 187.972 156.143 187.972 156.445 187.688ZM154.721 183.65C155.586 183.624 155.589 184.989 154.721 184.994C154.508 184.994 154.268 185.058 154.183 185.12C154.005 185.263 153.811 185.492 153.566 185.635C153.446 185.739 153.335 185.827 153.162 185.868C152.973 185.912 152.834 185.808 152.762 185.638C152.681 185.439 152.718 185.277 152.758 185.076C152.758 185.167 152.758 185.263 152.758 185.354C152.608 184.28 153.817 183.675 154.721 183.65V183.65ZM151.844 180.941C152.504 180.941 152.504 181.96 151.844 181.96C151.365 181.96 150.879 181.978 150.456 181.724C150.251 181.597 150.251 181.301 150.456 181.175C150.879 180.914 151.365 180.941 151.844 180.941V180.941ZM32.1922 196.827C31.2744 197.312 30.5625 196.222 31.1455 195.471C31.9924 194.388 33.9809 193.903 35.0815 194.799C35.193 194.89 35.1785 195.088 35.0815 195.183C34.6604 195.591 34.1554 195.771 33.6357 196.021C33.1321 196.261 32.6807 196.568 32.1922 196.827ZM33.4007 198.837C33.7246 198.494 34.26 199.031 33.9176 199.355C33.4799 199.766 33.0659 200.216 32.5394 200.518C32.3466 200.629 32.1261 200.41 32.237 200.216C32.5389 199.69 32.986 199.274 33.4007 198.837V198.837ZM32.21 204.531C31.8959 204.797 31.6223 205.104 31.3467 205.402C31.1958 205.564 30.9484 205.392 30.9932 205.196C31.191 204.333 32.0185 203.952 32.5994 203.37C32.9088 203.065 33.3932 203.55 33.0762 203.848C32.8075 204.097 32.4919 204.294 32.21 204.531ZM32.6553 207.533C32.8917 207.291 33.2582 207.66 33.0218 207.898C32.6043 208.316 32.1721 208.681 31.7098 209.047C31.5616 209.163 31.3887 208.988 31.5051 208.845C31.8703 208.378 32.237 207.948 32.6553 207.533V207.533ZM33.9292 208.394C34.6265 207.667 35.7373 208.78 35.031 209.495C34.2683 210.269 33.8439 211.294 33.0838 212.059C32.8495 212.296 32.5263 212.1 32.4919 211.818C32.3293 210.491 33.0465 209.313 33.9292 208.394ZM34.2752 213.255C34.5343 212.986 34.9504 213.405 34.6846 213.659C34.4551 213.882 34.227 214.104 34.0278 214.356C33.7984 214.642 33.6324 214.963 33.378 215.229C33.2416 215.374 33.0404 215.221 33.0728 215.049C33.2023 214.349 33.7929 213.755 34.2752 213.255V213.255ZM44.4319 249.46C44.9908 249.22 45.5413 249.712 45.2629 250.287C44.9089 251.017 44.2247 251.435 43.5859 251.885C43.2068 252.152 42.6453 251.954 42.4275 251.58C42.2276 251.24 42.3035 250.839 42.5598 250.557C43.0828 249.977 43.7581 249.747 44.4319 249.46ZM43.4555 247.313C43.0435 247.526 42.7762 247.84 42.506 248.213C42.247 248.58 42.0237 249.006 41.5573 249.121C41.3347 249.174 41.1666 249.051 41.0846 248.851C40.8723 248.341 41.2237 247.636 41.5227 247.221C41.8556 246.757 42.2338 246.362 42.7376 246.082C43.5445 245.641 44.2695 246.891 43.4555 247.313ZM40.0826 243.686C40.7607 242.938 41.9314 244.11 41.1851 244.787C40.8289 245.112 40.456 245.466 40.1129 245.769C39.9482 245.911 39.6748 245.948 39.5155 245.769C38.8836 245.053 39.5851 244.233 40.0826 243.686V243.686ZM2.07193 238.283C1.8823 235.829 2.59495 233.492 2.49282 231.105C2.47906 230.753 2.01672 230.5 1.75494 230.798C-1.02195 233.968 0.500736 240.746 1.15536 244.445C2.09257 249.747 3.32949 255.653 5.66538 260.534C5.91057 261.044 6.78305 260.802 6.74036 260.241C6.39232 255.637 4.47732 251.067 3.41345 246.592C2.76429 243.857 2.2889 241.088 2.07193 238.283ZM10.0733 269.495C10.0801 269.492 10.0877 269.488 10.096 269.488C10.0794 269.495 10.0623 269.506 10.0389 269.516C10.0512 269.513 10.0616 269.506 10.0733 269.495V269.495ZM9.98435 269.538C10.003 269.531 10.0202 269.524 10.0389 269.516C9.99546 269.538 9.95207 269.561 9.92173 269.568C9.94448 269.561 9.963 269.546 9.98435 269.538ZM9.92173 267.331C9.95207 267.336 9.99546 267.357 10.0389 267.38C10.0202 267.373 10.003 267.366 9.98435 267.357C9.963 267.35 9.94448 267.34 9.92173 267.331V267.331ZM10.0733 267.398C10.0616 267.393 10.0512 267.386 10.0389 267.382C10.0623 267.393 10.0794 267.401 10.096 267.412C10.0877 267.408 10.0801 267.405 10.0733 267.398V267.398ZM10.9545 268.61C10.9512 268.627 10.9484 268.649 10.9448 268.672C10.9374 268.705 10.9346 268.737 10.9249 268.774C10.8334 269.146 10.5771 269.469 10.156 269.531C10.0754 269.546 9.99547 269.561 9.91415 269.573C9.89475 269.58 9.87693 269.583 9.85823 269.589C9.55164 269.688 9.21754 269.67 8.91431 269.485C8.91078 269.485 8.90814 269.481 8.90461 269.481C8.87638 269.462 8.85362 269.441 8.82805 269.423C8.80194 269.404 8.7799 269.386 8.75379 269.367C8.72892 269.345 8.70686 269.324 8.6834 269.301C8.64 269.262 8.60067 269.215 8.56345 269.167C8.55939 269.162 8.55604 269.155 8.55322 269.155C8.52693 269.12 8.49871 269.086 8.47666 269.051C8.4195 268.956 8.38511 268.857 8.35953 268.751C8.35953 268.747 8.35812 268.747 8.35618 268.744C8.3403 268.679 8.32848 268.617 8.32372 268.552C8.32089 268.515 8.32161 268.481 8.32161 268.447C8.32161 268.414 8.32089 268.379 8.32372 268.345C8.32848 268.283 8.3403 268.218 8.35618 268.156C8.35812 268.149 8.35953 268.149 8.35953 268.146C8.38511 268.044 8.4195 267.941 8.47666 267.842C8.49871 267.811 8.5257 267.777 8.55322 267.745C8.55604 267.742 8.55939 267.733 8.56345 267.73C8.60067 267.678 8.64 267.638 8.6834 267.595C8.70686 267.573 8.72892 267.551 8.75379 267.528C8.7799 267.511 8.80194 267.493 8.82805 267.474C8.85362 267.456 8.87638 267.435 8.90461 267.416C8.90814 267.416 8.91078 267.416 8.91431 267.412C9.21754 267.23 9.55023 267.213 9.85823 267.31C9.87622 267.313 9.89475 267.317 9.91415 267.324C9.99547 267.34 10.0754 267.35 10.156 267.366C10.5771 267.431 10.8334 267.749 10.9249 268.126C10.9346 268.156 10.9374 268.192 10.9448 268.225C10.9484 268.248 10.9512 268.269 10.9545 268.287C10.9711 268.398 10.9711 268.502 10.9545 268.61V268.61ZM231.937 266.267C231.56 266.779 230.799 266.479 230.916 265.837C231.565 262.385 233.343 259.162 234.191 255.729C235.095 252.09 235.613 248.398 235.765 244.646C235.795 243.857 236.98 243.85 236.996 244.646C237.134 251.589 236.202 260.511 231.937 266.267ZM226.119 277.162C224.407 277.162 224.407 274.507 226.119 274.507C227.834 274.507 227.834 277.162 226.119 277.162ZM52.3666 398.07C54.2126 400.867 56.3562 403.504 57.8321 406.525C58.0519 406.972 57.5296 407.375 57.1535 407.047C52.0159 402.605 47.1497 395.152 46.5164 388.278C46.4441 387.479 47.6341 387.391 47.8587 388.094C48.9832 391.629 50.3117 394.96 52.3666 398.07V398.07ZM61.5628 410.941C63.0269 410.941 63.0269 413.21 61.5628 413.21C60.0987 413.21 60.0987 410.941 61.5628 410.941ZM187.273 381.555C185.988 381.942 185.112 379.964 186.352 379.363C187.571 378.775 188.897 378.385 190.201 378.038C191.079 377.809 191.713 379.163 190.834 379.555C189.592 380.11 188.601 381.158 187.273 381.555V381.555ZM187.248 376.08C186.772 376.531 185.731 376.956 185.166 376.459C185.041 376.401 184.928 376.335 184.826 376.226C184.685 376.073 184.685 375.857 184.826 375.708C184.918 375.605 185.015 375.54 185.133 375.482C185.322 375.311 185.561 375.291 185.826 375.219C185.893 375.201 185.964 375.18 186.032 375.157C186.04 375.15 186.04 375.154 186.052 375.145C186.184 375.065 186.122 375.106 186.2 375.034C186.892 374.374 187.943 375.42 187.248 376.08V376.08ZM185.494 370.624C186.56 370.597 186.56 372.262 185.494 372.278C185.076 372.285 184.662 372.393 184.274 372.55C183.81 372.746 183.422 373.104 182.931 373.231C182.287 373.395 181.924 372.749 182.148 372.213C182.614 371.119 184.424 370.655 185.494 370.624ZM182.621 366.187C183.588 366.155 183.589 367.679 182.621 367.688C182.217 367.692 181.786 367.771 181.428 367.963C181.058 368.161 180.79 368.581 180.384 368.671C180.075 368.738 179.671 368.581 179.61 368.23C179.365 366.848 181.587 366.221 182.621 366.187V366.187ZM178.929 363.566C179.038 363.562 179.038 363.751 178.929 363.741C178.793 363.733 178.654 363.723 178.516 363.712C178.442 363.709 178.442 363.601 178.516 363.597C178.654 363.589 178.793 363.577 178.929 363.566ZM176.355 357.844C176.867 357.609 177.459 357.694 177.766 358.212C178.022 358.65 177.911 359.401 177.396 359.62C176.789 359.877 176.147 360.024 175.489 359.832C174.939 359.668 174.496 359.426 174.291 358.948C174.295 358.963 174.297 358.972 174.302 358.988C174.282 358.957 174.261 358.93 174.24 358.897C173.82 358.277 174.517 357.406 175.214 357.636C175.221 357.636 175.226 357.639 175.231 357.639C175.463 357.667 175.657 357.771 175.904 357.836C176.055 357.875 176.195 357.916 176.355 357.844ZM145.127 392.262C146.083 392.404 146.03 393.96 145.127 394.138C144.189 394.326 143.34 394.729 142.43 394.984C141.218 395.323 140.615 393.682 141.603 393.021C142.589 392.365 143.966 392.104 145.127 392.262ZM141.222 388.364C141.186 388.353 141.172 388.346 141.17 388.343C140.922 388.313 140.749 388.16 140.662 387.92C140.638 387.865 140.62 387.807 140.602 387.748C140.519 387.445 140.606 387.106 140.83 386.888C141.7 386.025 143.072 386.194 144.085 386.69C144.513 386.906 144.631 387.507 144.4 387.902C144.136 388.353 143.629 388.415 143.19 388.221C142.94 388.109 142.564 388.047 142.317 388.114C142.174 388.149 142.051 388.193 141.902 388.278C141.708 388.385 141.439 388.444 141.222 388.364V388.364ZM140.763 382.163C141.77 382.153 141.77 383.732 140.763 383.721C140.137 383.714 139.482 383.757 138.861 383.688C137.902 383.571 137.902 382.31 138.861 382.199C139.482 382.123 140.137 382.171 140.763 382.163V382.163ZM136.662 377.645C137.141 377.613 137.141 378.422 136.662 378.392C136.342 378.373 135.99 378.407 135.716 378.228C135.563 378.122 135.563 377.916 135.716 377.809C135.99 377.63 136.342 377.662 136.662 377.645ZM132.391 372.546C133.121 372.158 133.857 372.882 134.337 373.364C135.049 374.074 133.949 375.175 133.236 374.469C133.052 374.282 132.865 374.097 132.671 373.92C132.49 373.756 132.278 373.676 132.153 373.446C131.989 373.141 132.065 372.719 132.391 372.546V372.546ZM104.645 399.474C104.564 399.174 104.74 398.664 104.973 398.479C105.688 397.885 106.603 397.477 107.524 397.378C108.217 397.301 108.457 398.223 108.053 398.657C107.665 399.073 107.118 399.422 106.603 399.657C106.136 399.865 105.744 400.01 105.284 399.887C105.014 399.85 104.728 399.765 104.645 399.474V399.474ZM101.595 394.66C102.366 393.689 103.747 393.321 104.876 392.935C105.733 392.642 106.102 394 105.248 394.288C104.125 394.671 102.934 395.401 101.708 395.094C101.505 395.043 101.479 394.806 101.595 394.66V394.66ZM98.4992 390.629C98.9861 389.368 101.091 389.58 102.188 389.58C103.156 389.58 103.156 391.079 102.188 391.079C101.542 391.079 100.87 391.052 100.231 391.172C99.7005 391.275 99.1749 391.428 98.6933 391.103C98.5451 391.007 98.4287 390.807 98.4992 390.629V390.629ZM98.4939 387.48C97.4726 387.455 96.1602 387.625 95.3576 386.902C95.2094 386.766 95.2094 386.505 95.3576 386.369C96.1602 385.646 97.4726 385.819 98.4939 385.791C99.5894 385.76 99.5894 387.511 98.4939 387.48ZM93.9834 378.976C94.8619 378.976 94.8619 380.345 93.9834 380.342C93.209 380.342 92.4964 380.087 92.0589 379.413C91.9125 379.192 92.1083 378.944 92.3393 378.922C92.6763 378.891 93.0238 378.944 93.3501 378.952C93.5636 378.955 93.7682 378.976 93.9834 378.976V378.976ZM189.957 387.664C189.624 387.05 190.213 386.362 190.762 386.136C191.171 385.964 191.635 386.018 192.06 386.059C192.803 386.126 192.803 387.145 192.06 387.212C191.88 387.227 191.748 387.23 191.598 387.269C191.548 387.285 191.497 387.299 191.45 387.315C191.441 387.322 191.407 387.339 191.381 387.353C191.36 387.38 191.219 387.493 191.21 387.496C191.166 387.54 191.122 387.575 191.085 387.628C190.913 387.84 190.751 387.944 190.465 387.955C190.266 387.964 190.051 387.84 189.957 387.664V387.664ZM147.937 399.063C148.657 399.315 148.597 400.199 147.937 400.474C147.461 400.666 146.97 400.854 146.485 401.038C146.028 401.218 145.517 401.444 145.018 401.384C144.416 401.308 143.864 400.689 144.268 400.076C144.963 399.015 146.803 398.664 147.937 399.063ZM109.341 407.47C108.64 407.429 108.272 406.616 108.771 406.09C109.487 405.328 110.648 405.373 111.629 405.373C112.871 405.369 112.871 407.29 111.629 407.296C111.251 407.296 110.847 407.269 110.477 407.334C110.082 407.41 109.748 407.491 109.341 407.47ZM306.769 105.696C308.608 112.378 310.195 119.162 310.827 126.079C311.449 132.891 310.407 139.414 309.648 146.158C309.569 146.88 310.596 146.89 310.82 146.319C315.87 133.355 312.098 118.022 307.974 105.366C307.727 104.605 306.554 104.912 306.769 105.696ZM307.373 152.752C306.718 152.752 306.171 153.301 306.171 153.957C306.171 154.613 306.718 155.155 307.373 155.155C308.029 155.155 308.576 154.613 308.576 153.957C308.576 153.301 308.029 152.752 307.373 152.752ZM28.8248 106.491C32.8082 94.2542 37.3071 80.0699 49.4415 73.4355C49.8756 73.1974 49.4939 72.6012 49.0624 72.7899C42.6831 75.5329 38.1396 80.5109 34.5929 86.3833C31.029 92.2856 28.095 99.4016 27.8029 106.352C27.778 106.959 28.6484 107.027 28.8248 106.491ZM27.4136 112.568C26.5233 112.328 25.6792 113.171 25.9244 114.06C26.036 114.47 26.362 114.796 26.7693 114.911C27.2502 115.038 27.9214 114.84 28.1377 114.35C28.2673 114.057 28.3733 113.794 28.2837 113.466C28.1687 113.046 27.838 112.685 27.4136 112.568V112.568ZM187.437 265.267C186.514 265.669 185.546 264.935 185.115 264.135C184.665 263.295 184.478 262.418 184.512 261.471C184.561 260.197 186.387 260.22 186.475 261.471C186.51 262.014 186.634 262.602 186.936 263.067C187.251 263.554 187.779 264.135 187.733 264.754C187.717 264.948 187.634 265.182 187.437 265.267V265.267ZM189.945 259.829C190.139 260.019 190.317 260.204 190.395 260.474C190.455 260.707 190.317 261.04 190.047 261.079C189.684 261.132 189.433 261.099 189.1 260.926C188.841 260.792 188.663 260.599 188.49 260.374C188.193 259.982 188.084 259.493 188.086 259.008C188.086 258.112 189.433 258.119 189.47 259.008C189.478 259.216 189.499 259.333 189.592 259.479C189.608 259.497 189.608 259.497 189.615 259.509C189.649 259.545 189.68 259.582 189.716 259.613C189.797 259.687 189.867 259.756 189.945 259.829V259.829ZM192.18 254.785C192.63 255.216 193.258 255.449 193.642 255.948C193.868 256.241 193.93 256.623 193.642 256.911C193.42 257.138 193.094 257.156 192.82 257.019C192.224 256.719 191.6 256.309 191.12 255.845C190.42 255.175 191.48 254.117 192.18 254.785V254.785ZM194.93 253.457C194.154 253.42 194.15 252.21 194.93 252.245C195.251 252.261 195.505 252.377 195.796 252.49C196.172 252.633 196.549 252.702 196.846 252.993C196.99 253.132 196.999 253.395 196.846 253.538C196.502 253.845 196.061 253.864 195.63 253.716C195.482 253.662 195.339 253.6 195.196 253.545C195.135 253.519 195.073 253.498 195.008 253.48C194.976 253.469 194.964 253.464 194.957 253.461C194.946 253.461 194.944 253.461 194.93 253.457V253.457ZM198.624 249.873C197.708 249.865 197.708 248.456 198.624 248.449C199.038 248.445 199.472 248.407 199.883 248.438C200.335 248.479 200.672 248.493 201.011 248.825C201.194 249.006 201.194 249.313 201.011 249.493C200.663 249.839 200.243 249.883 199.769 249.883C199.386 249.88 199.007 249.876 198.624 249.873V249.873ZM245.407 363.533C245.92 363.566 246.349 363.934 246.349 364.475C246.349 364.856 246.067 365.319 245.657 365.381C245.299 365.436 245.036 365.638 244.779 365.903C244.438 366.261 244.147 366.75 243.652 366.866C243.161 366.983 242.697 366.72 242.549 366.242C242.323 365.531 242.958 364.683 243.486 364.245C244.04 363.792 244.671 363.481 245.407 363.533ZM241.281 361.271C242.258 360.754 243.126 362.25 242.145 362.749C241.77 362.945 241.429 363.18 241.127 363.481C240.852 363.761 240.644 364.062 240.339 364.273C240.027 364.544 239.639 364.672 239.295 364.379C238.956 364.095 239.079 363.405 239.284 363.088C239.774 362.342 240.491 361.694 241.281 361.271V361.271ZM236.575 359.997C237.562 359.655 237.975 361.209 237.005 361.558C236.455 361.756 235.943 362.066 235.504 362.449C235.105 362.799 234.733 363.174 234.211 363.336C233.747 363.481 233.265 363.005 233.413 362.538C233.809 361.282 235.417 360.41 236.575 359.997V359.997ZM232.225 358.757C233.272 358.226 234.197 359.801 233.149 360.337C232.535 360.652 231.948 361.026 231.508 361.564C231.133 362.015 230.457 362.818 229.843 362.303C229.48 362.005 229.619 361.29 229.785 360.936C229.956 360.569 230.207 360.246 230.501 359.965C231.014 359.484 231.597 359.08 232.225 358.757ZM252.802 65.2788C253.424 65.2029 254.202 65.3458 254.386 66.0373C254.543 66.63 253.756 66.9528 253.32 67.0763C252.821 67.2156 252.414 67.4714 251.935 67.6584C251.207 67.946 250.593 66.9916 250.956 66.3866C251.345 65.7498 252.075 65.367 252.802 65.2788ZM251.159 63.1038C250.447 63.1161 249.79 63.2484 249.143 63.5554C248.633 63.7953 247.986 64.2892 247.968 64.9031C247.963 65.0742 248.116 65.2188 248.286 65.2188C248.764 65.2188 249.184 64.836 249.582 64.6049C250.064 64.3245 250.614 64.2469 251.159 64.238C251.89 64.2222 251.893 63.0897 251.159 63.1038V63.1038ZM247.677 60.4578C246.957 60.8211 246.231 61.2904 245.661 61.8654C245.486 62.0401 245.67 62.2871 245.885 62.2518C246.702 62.1177 247.358 61.5144 248.076 61.1369C248.526 60.9023 248.127 60.2284 247.677 60.4578ZM245.287 57.4696C245.89 57.302 246.084 58.154 245.539 58.378C244.798 58.6814 244.086 59.0748 243.394 59.4735C242.853 59.7822 242.426 60.1597 241.798 60.2549C241.576 60.2902 241.394 60.1314 241.443 59.9004C241.604 59.1013 242.35 58.7202 243.013 58.348C243.724 57.9599 244.511 57.6883 245.287 57.4696V57.4696ZM242.54 54.8853C240.648 54.8924 238.333 55.6562 237.333 57.3514C237.185 57.6054 237.43 57.8947 237.704 57.8312C239.425 57.4308 240.699 56.1466 242.54 56.039C243.28 55.9966 243.29 54.8853 242.54 54.8853ZM235.973 55.2893C235.544 55.3157 235.317 55.4692 235.065 55.8185C235.003 55.9067 235.123 56.0231 235.207 55.9649C235.334 55.8767 235.447 55.7638 235.574 55.6756C235.689 55.5997 235.846 55.6297 235.973 55.635C236.199 55.6474 236.199 55.2787 235.973 55.2893V55.2893ZM235.892 49.8314C234.816 50.0114 233.66 50.2936 232.683 50.8034C231.718 51.3079 230.515 51.8583 229.956 52.8408C229.813 53.0913 230.046 53.3665 230.314 53.3048C231.254 53.0984 232.032 52.3928 232.853 51.9112C233.888 51.3079 234.893 50.754 236.056 50.4224C236.446 50.3148 236.278 49.7644 235.892 49.8314V49.8314ZM228.834 46.972C227.897 47.4624 227.107 47.9616 226.428 48.7872C226.301 48.9424 226.49 49.1276 226.645 49.0077C227.412 48.4132 228.293 47.9581 229.164 47.54C229.543 47.3565 229.21 46.7762 228.834 46.972ZM122.301 52.9943C122.042 53.273 121.862 53.5852 121.791 53.9592C121.708 54.3685 121.627 55.1164 122.054 55.3651C122.207 55.4568 122.401 55.4568 122.555 55.3651C122.819 55.2134 122.839 54.8941 122.871 54.6242C122.909 54.2979 122.906 54.0562 123.128 53.8269C123.656 53.2783 122.818 52.4422 122.301 52.9943V52.9943ZM117.831 51.9588C118.607 51.4155 119.329 52.682 118.57 53.2201C118.03 53.6029 117.642 54.1391 117.478 54.7865C117.319 55.4163 117.335 56.106 116.891 56.6175C116.732 56.7975 116.381 56.8063 116.227 56.6175C115.629 55.8943 115.869 54.8288 116.166 54.0192C116.481 53.1477 117.078 52.4845 117.831 51.9588V51.9588ZM114.94 53.1566C113.714 53.9945 111.747 56.1413 112.916 57.7218C113.061 57.9141 113.38 58.0323 113.567 57.8065C114 57.2773 114.1 56.6352 114.372 56.0231C114.659 55.3916 115.153 54.88 115.716 54.4866C116.519 53.9222 115.762 52.5903 114.94 53.1566V53.1566ZM108.408 55.9296C107.945 56.4411 107.647 57.2385 107.651 57.9229C107.654 58.2016 107.956 58.2757 108.145 58.1275C108.649 57.7377 108.678 57.0709 109.115 56.637C109.575 56.1801 108.84 55.4515 108.408 55.9296ZM103.765 56.2118C102.863 57.175 102.024 58.8684 102.69 60.1667C102.823 60.4172 103.204 60.4031 103.341 60.1667C103.904 59.1701 103.897 58.0517 104.731 57.1785C105.337 56.5399 104.365 55.5662 103.765 56.2118V56.2118ZM99.8628 57.5225C99.4395 58.401 98.8838 59.3764 99.1184 60.3819C99.2383 60.897 100.06 61.0487 100.295 60.5354C100.63 59.8051 100.874 59.0484 101.244 58.3286C101.713 57.4078 100.313 56.5999 99.8628 57.5225V57.5225ZM66.6132 146.504C66.3098 146.37 66.2286 146.096 66.2304 145.745C66.2339 145.022 65.0891 145.026 65.1155 145.745C65.1332 146.193 65.2319 146.703 65.583 147.023C65.9111 147.314 66.5197 147.513 66.9254 147.287C67.0806 147.201 67.2182 147.03 67.1194 146.846C67.0118 146.65 66.8072 146.592 66.6132 146.504ZM69.5414 142.448C69.3826 142.281 69.2221 142.113 69.0616 141.944C68.4142 141.256 67.3435 142.329 68.0279 142.976C68.169 143.108 68.3084 143.242 68.4495 143.378C68.5871 143.507 68.7564 143.729 68.9293 143.805C69.118 143.89 69.2592 144.017 69.4603 144.085C69.6508 144.147 69.903 144.112 70.0494 143.966C70.344 143.671 70.1429 143.225 69.9365 142.948C69.806 142.777 69.6931 142.609 69.5414 142.448ZM72.5843 142.415C72.4644 142.346 72.3232 142.295 72.258 142.244C72.2544 142.24 72.1856 142.163 72.175 142.159C72.1627 142.138 72.1468 142.117 72.138 142.094C72.1327 142.083 72.131 142.076 72.1239 142.059C72.0675 141.882 72.0551 141.799 72.0533 141.637C72.0375 140.82 70.7691 140.82 70.7833 141.637C70.7921 142.224 70.9614 142.747 71.4448 143.099C71.8452 143.396 72.5984 143.495 72.9071 143.02C72.9636 142.934 72.9583 142.808 72.9071 142.722C72.8401 142.609 72.699 142.486 72.5843 142.415V142.415ZM75.9923 140.669C75.8424 140.617 75.6748 140.526 75.5584 140.42C75.3291 140.208 75.2726 139.887 75.2691 139.589C75.2585 138.859 74.1225 138.855 74.1331 139.589C74.1437 140.18 74.3113 140.727 74.7046 141.171C75.1456 141.671 76.0559 141.953 76.5886 141.475C76.7279 141.35 76.7156 141.11 76.5886 140.981C76.4016 140.804 76.2305 140.752 75.9923 140.669V140.669ZM79.7973 137.55C79.7673 137.419 79.7885 137.262 79.792 137.127C79.8114 136.379 78.6154 136.379 78.6383 137.127C78.6472 137.426 78.6666 137.728 78.7671 138.014C78.8924 138.367 79.2222 138.839 79.6685 138.705C80.0125 138.605 80.0266 138.271 79.9525 137.964C79.9173 137.82 79.8291 137.7 79.7973 137.55V137.55ZM83.6781 135.073C83.7222 134.08 82.094 134.08 82.1399 135.073C82.1787 135.927 82.3251 137.067 83.2336 137.433C83.3976 137.495 83.5793 137.363 83.6252 137.211C83.731 136.853 83.6146 136.518 83.6481 136.153C83.6816 135.8 83.6622 135.435 83.6781 135.073V135.073ZM86.3876 134.664C86.3982 134.772 86.4 134.899 86.4264 135.001C86.4229 134.99 86.4229 134.99 86.4282 135.013C86.4264 135.008 86.4264 135.004 86.4264 135.001C86.4405 135.029 86.527 135.295 86.5058 135.186C86.5411 135.373 86.6063 135.504 86.7122 135.661C86.8656 135.883 87.1585 135.883 87.3119 135.661C87.4054 135.523 87.476 135.405 87.5077 135.237C87.513 135.204 87.513 135.193 87.5113 135.19C87.5166 135.183 87.5219 135.179 87.536 135.156C87.6277 135.013 87.6206 134.828 87.6383 134.664C87.7194 133.858 86.3047 133.858 86.3876 134.664V134.664ZM162.296 145.333C162.289 144.564 161.111 144.564 161.104 145.333C161.098 145.844 161.093 146.354 161.091 146.866C161.086 147.448 161.04 148.016 161.419 148.485C161.546 148.638 161.852 148.638 161.98 148.485C162.361 148.016 162.312 147.448 162.307 146.866C162.305 146.354 162.301 145.844 162.296 145.333ZM164.603 146.158C164.632 146.753 164.607 147.402 164.893 147.945C165.088 148.323 165.697 148.323 165.893 147.945C166.177 147.402 166.154 146.753 166.182 146.158C166.224 145.137 164.559 145.137 164.603 146.158V146.158ZM168.008 146.716C167.528 147.241 167.473 148.01 167.639 148.675C167.696 148.887 168.013 148.887 168.07 148.675C168.188 148.211 168.184 147.605 168.525 147.232C168.841 146.887 168.324 146.37 168.008 146.716V146.716ZM257.732 176.635C257.619 177.18 258.085 177.864 258.406 178.254C258.84 178.766 259.408 179.06 259.33 179.805C259.32 179.925 259.272 180.075 259.147 180.131C258.656 180.341 258.293 180.341 257.875 179.969C257.527 179.655 257.159 179.302 256.961 178.868C256.778 178.466 256.621 178.065 256.592 177.621C256.561 177.164 256.748 176.822 256.899 176.405C257.088 175.883 257.848 176.09 257.732 176.635V176.635ZM263.391 175.404C263.835 175.651 264.409 176.033 264.321 176.61C264.227 177.222 263.424 177.037 263.045 176.884C262.62 176.716 262.303 176.457 261.828 176.443C260.875 176.413 260.874 174.931 261.828 174.957C262.391 174.977 262.902 175.13 263.391 175.404V175.404ZM268.085 173.648C268.081 173.98 268.439 174.001 268.579 174.246C268.704 174.462 268.653 174.666 268.434 174.797C267.854 175.137 267.152 174.287 267.083 173.782C267.039 173.461 267.208 173.142 267.575 173.142C267.852 173.142 268.087 173.371 268.085 173.648V173.648ZM272.015 171.387C272.23 171.466 272.35 171.599 272.468 171.784C272.548 171.906 272.557 172.11 272.468 172.228C272.045 172.835 271.235 172.689 270.733 172.258C270.299 171.891 270.154 171.323 270.135 170.775C270.106 169.847 271.576 169.845 271.579 170.775C271.579 171.001 271.56 170.978 271.639 171.17C271.588 171.043 271.703 171.209 271.685 171.209C271.71 171.23 271.736 171.248 271.735 171.248C271.846 171.308 271.955 171.369 272.015 171.387V171.387ZM274.862 170.775C274.857 170.651 275.065 170.651 275.058 170.775C275.047 170.916 275.037 171.052 275.026 171.186C275.021 171.274 274.899 171.274 274.894 171.186C274.885 171.052 274.873 170.916 274.862 170.775V170.775ZM294.249 135.585C293.98 135.569 293.732 135.562 293.497 135.528C293.01 135.456 292.511 135.366 292.128 135.758C291.832 136.065 291.832 136.548 292.128 136.848C292.488 137.22 292.941 137.164 293.405 137.097C293.688 137.058 293.938 137.047 294.249 137.028C295.178 136.97 295.178 135.638 294.249 135.585V135.585ZM294.66 129.829C293.774 129.785 292.652 129.555 291.804 129.854C291.105 130.097 291.105 131.021 291.804 131.265C292.652 131.563 293.774 131.334 294.66 131.291C295.602 131.244 295.602 129.875 294.66 129.829V129.829ZM291.772 128.857C292.075 128.733 292.282 128.675 292.608 128.675C293.352 128.675 293.352 127.522 292.608 127.522C292.306 127.522 292.003 127.537 291.714 127.633C291.37 127.74 290.816 128.112 290.994 128.559C291.128 128.887 291.444 128.993 291.772 128.857V128.857ZM139.295 224.887C139.142 225.489 138.195 225.514 138.059 224.887C137.974 224.508 138.034 224.152 138.327 223.876C138.63 223.587 139.228 223.682 139.322 224.139C139.375 224.399 139.359 224.628 139.295 224.887ZM136.432 224.743C136.372 223.91 137.78 223.91 137.722 224.743C137.695 225.095 137.716 225.499 137.491 225.787C137.26 226.094 136.894 226.094 136.662 225.787C136.436 225.499 136.457 225.095 136.432 224.743ZM136.152 226.261C136.088 226.565 135.603 226.565 135.54 226.261C135.497 226.066 135.501 225.865 135.499 225.663C135.492 225.219 136.201 225.219 136.192 225.663C136.187 225.865 136.192 226.066 136.152 226.261ZM134.372 226.604C134.353 226.671 134.261 226.671 134.24 226.604C134.233 226.572 134.226 226.542 134.215 226.51C134.169 226.357 134.444 226.357 134.398 226.51C134.391 226.542 134.381 226.572 134.372 226.604V226.604ZM86.3012 227.068C86.3559 227.225 86.3982 227.39 86.4388 227.549C86.5287 227.9 86.6875 228.345 86.3611 228.622C86.2024 228.754 86.0454 228.765 85.8602 228.687C85.4227 228.498 85.5074 227.925 85.5638 227.549C85.5885 227.39 85.6203 227.23 85.6714 227.076C85.6397 226.914 85.7085 226.736 85.8813 226.685C85.929 226.623 86.0401 226.623 86.0912 226.685C86.2588 226.736 86.3276 226.911 86.3012 227.068V227.068ZM87.6277 227.808C87.8464 227.237 88.6543 227.576 88.4021 228.133C88.3439 228.269 88.3827 228.422 88.3915 228.56C88.418 228.941 87.8376 229.096 87.6683 228.754C87.596 228.611 87.5571 228.451 87.5501 228.294C87.5466 228.311 87.5448 228.331 87.5413 228.35C87.4583 228.669 86.975 228.669 86.8939 228.35C86.8657 228.242 86.8515 228.133 86.8374 228.027C86.7475 227.422 87.5871 227.399 87.5924 227.944C87.6048 227.9 87.6118 227.853 87.6277 227.808V227.808ZM88.8448 228.122C88.8272 227.981 89.0936 227.981 89.0759 228.122C89.0654 228.216 89.0601 228.281 89.0177 228.366C88.9983 228.412 88.9242 228.412 88.9031 228.366C88.8625 228.281 88.8554 228.216 88.8448 228.122ZM90.3354 228.331C90.3425 228.512 90.4148 228.638 90.4819 228.8C90.5506 228.967 90.5524 229.13 90.593 229.304C90.6265 229.454 90.4977 229.594 90.3442 229.551C90.0779 229.482 89.7992 229.414 89.6563 229.147C89.5169 228.888 89.4446 228.625 89.4323 228.331C89.4111 227.75 90.3125 227.75 90.3354 228.331V228.331ZM272.971 343.9C270.214 338.724 266.427 335.511 262.417 333.804C259.448 332.53 256.377 332.073 253.532 332.211C250.708 332.373 248.071 333.105 245.977 334.222C243.761 335.407 242.069 337.046 241.267 338.916C240.06 341.74 238.37 344.357 235.227 345.441C231.896 346.591 226.89 346.12 219.055 342.646C211.411 339.246 206.648 333.439 203.595 326.684C200.437 319.702 198.987 311.59 198.098 304.013C197.364 297.7 202.635 291.783 208.883 284.786C216.229 276.534 224.848 266.869 227.621 252.279C227.972 250.361 228.231 248.479 228.407 246.644C229.557 233.907 226.559 221.59 222.002 212.238C217.31 202.555 210.834 195.885 205.408 194.857C205.147 194.808 204.888 194.769 204.607 194.756C198.518 194.194 196.595 196.025 196.126 201.241C195.936 203.232 196.04 205.76 196.177 208.955C196.354 212.917 196.564 217.997 196.299 224.399C195.473 243.617 179.396 249.627 177.803 250.176C176.121 240.996 174.168 227.768 172.256 208.955C170.352 190.339 163.497 177.598 155.191 168.928C140.396 153.511 120.978 151.205 117.198 151.336C116.645 151.323 116.139 151.323 115.688 151.323C88.3633 151.323 71.5947 175.578 61.6493 200.322C56.3349 213.552 52.966 226.965 50.9788 236.814C44.0812 230.638 44.6813 216.972 45.2285 204.889C45.8583 190.671 46.4164 178.3 36.0854 177.427C35.04 177.34 34.0106 177.372 32.9984 177.513C26.7693 178.401 21.3249 183.532 17.2416 191.331C13.265 198.925 10.5418 209.08 9.59927 220.299C8.97217 227.766 9.14575 235.704 10.262 243.66C15.0091 277.336 37.1851 305.656 37.2561 305.724C37.3863 305.895 37.529 306.04 37.6777 306.167C37.4112 320.593 39.7326 338.87 44.7406 356.397C48.9109 370.985 54.9485 385.118 62.9052 396.2C71.0196 407.47 81.1044 415.584 93.2337 417.849C99.0055 418.915 105.236 418.652 111.9 416.752C116.28 415.496 120.625 418.426 124.64 421.134C128.969 424.029 132.978 426.731 137.15 425.251C141.617 423.683 143.954 419.16 146.136 414.955C147.706 411.938 149.172 409.124 151.036 408.393C152.853 407.678 157.006 409.305 161.631 411.102C167.983 413.561 175.134 416.352 180.493 414.658C185.814 412.986 188.361 408.691 191.085 404.136C193.125 400.682 195.288 397.055 198.899 394.609C202.949 391.873 211.168 394.332 219.875 396.932C227.605 399.234 235.682 401.642 242.313 400.871C252.05 399.742 253.22 389.567 254.37 379.57C255.015 373.968 255.663 368.44 257.931 365.367C261.438 360.654 266.217 363.167 270.039 365.175C272.834 366.64 275.257 367.914 277.334 367.059C280.385 365.801 281.451 363.897 280.212 359.364C279.357 356.204 277.02 351.53 272.971 343.9" fill="#341B30"/>
<path fill-rule="evenodd" clip-rule="evenodd" d="M250.956 66.3866C251.345 65.7498 252.075 65.367 252.802 65.2788C253.424 65.2029 254.202 65.3458 254.386 66.0373C254.543 66.63 253.756 66.9528 253.32 67.0763C252.821 67.2157 252.414 67.4714 251.935 67.6584C251.207 67.946 250.593 66.9916 250.956 66.3866ZM261.828 174.957C262.391 174.977 262.902 175.13 263.391 175.404C263.835 175.65 264.409 176.033 264.321 176.61C264.227 177.222 263.424 177.037 263.045 176.884C262.62 176.716 262.302 176.457 261.828 176.443C260.875 176.413 260.874 174.931 261.828 174.957V174.957ZM267.083 173.782C267.039 173.461 267.208 173.142 267.575 173.142C267.852 173.142 268.087 173.371 268.085 173.648C268.081 173.98 268.439 174.001 268.579 174.246C268.704 174.462 268.653 174.666 268.434 174.797C267.854 175.137 267.152 174.287 267.083 173.782V173.782ZM291.772 128.857C291.444 128.993 291.128 128.887 290.994 128.559C290.816 128.112 291.37 127.74 291.714 127.633C292.003 127.537 292.306 127.522 292.608 127.522C293.352 127.522 293.352 128.675 292.608 128.675C292.282 128.675 292.075 128.733 291.772 128.857V128.857ZM270.135 170.775C270.106 169.847 271.576 169.845 271.579 170.775C271.579 171.001 271.56 170.978 271.639 171.17C271.588 171.043 271.703 171.209 271.685 171.209C271.71 171.23 271.736 171.248 271.735 171.248C271.846 171.308 271.955 171.369 272.015 171.387C272.23 171.466 272.35 171.599 272.468 171.784C272.548 171.906 272.557 172.11 272.468 172.228C272.045 172.835 271.235 172.689 270.733 172.258C270.299 171.891 270.154 171.323 270.135 170.775V170.775ZM245.885 62.2518C245.67 62.2871 245.486 62.0401 245.661 61.8654C246.231 61.2904 246.957 60.8211 247.677 60.4578C248.127 60.2284 248.526 60.9023 248.076 61.1369C247.358 61.5144 246.702 62.1177 245.885 62.2518ZM241.798 60.2549C241.576 60.2902 241.394 60.1314 241.443 59.9004C241.604 59.1013 242.35 58.7202 243.013 58.348C243.724 57.9599 244.511 57.6883 245.287 57.4696C245.89 57.302 246.084 58.154 245.539 58.378C244.798 58.6814 244.086 59.0748 243.394 59.4735C242.853 59.7822 242.426 60.1597 241.798 60.2549V60.2549ZM237.704 57.8312C237.43 57.8947 237.185 57.6054 237.333 57.3514C238.333 55.6562 240.648 54.8924 242.54 54.8853C243.29 54.8853 243.28 55.9966 242.54 56.039C240.699 56.1466 239.425 57.4308 237.704 57.8312ZM235.207 55.9649C235.123 56.0231 235.003 55.9067 235.065 55.8185C235.317 55.4692 235.544 55.3157 235.973 55.2893C236.199 55.2787 236.199 55.6474 235.973 55.635C235.846 55.6297 235.689 55.5997 235.574 55.6756C235.447 55.7638 235.334 55.8767 235.207 55.9649V55.9649ZM236.056 50.4224C234.893 50.754 233.888 51.3079 232.853 51.9112C232.032 52.3928 231.254 53.0984 230.314 53.3048C230.046 53.3665 229.813 53.0913 229.956 52.8408C230.515 51.8583 231.718 51.3079 232.683 50.8034C233.66 50.2936 234.816 50.0114 235.892 49.8314C236.278 49.7644 236.446 50.3148 236.056 50.4224V50.4224ZM226.645 49.0077C226.49 49.1276 226.301 48.9424 226.428 48.7872C227.107 47.9616 227.897 47.4624 228.834 46.972C229.21 46.7762 229.543 47.3565 229.164 47.54C228.293 47.9581 227.412 48.4132 226.645 49.0077ZM274.894 171.186C274.885 171.052 274.873 170.916 274.862 170.775C274.857 170.651 275.065 170.651 275.058 170.775C275.047 170.916 275.037 171.052 275.026 171.186C275.021 171.274 274.899 171.274 274.894 171.186V171.186ZM66.2304 145.745C66.2286 146.096 66.3098 146.37 66.6132 146.504C66.8072 146.592 67.0119 146.65 67.1195 146.846C67.2182 147.03 67.0806 147.201 66.9254 147.287C66.5197 147.513 65.9111 147.314 65.583 147.023C65.232 146.703 65.1332 146.193 65.1155 145.745C65.0891 145.026 66.2339 145.022 66.2304 145.745ZM69.0616 141.944C69.2221 142.113 69.3827 142.281 69.5414 142.448C69.6931 142.609 69.806 142.777 69.9366 142.948C70.1429 143.225 70.344 143.671 70.0495 143.966C69.903 144.112 69.6508 144.147 69.4603 144.085C69.2592 144.017 69.1181 143.89 68.9293 143.805C68.7564 143.729 68.5871 143.507 68.4495 143.378C68.3084 143.242 68.169 143.108 68.0279 142.976C67.3435 142.329 68.4142 141.256 69.0616 141.944ZM72.258 142.244C72.3233 142.295 72.4644 142.346 72.5843 142.415C72.699 142.486 72.8401 142.609 72.9071 142.722C72.9583 142.808 72.9636 142.934 72.9071 143.02C72.5984 143.495 71.8452 143.396 71.4448 143.099C70.9614 142.747 70.7921 142.224 70.7833 141.637C70.7692 140.82 72.0375 140.82 72.0534 141.637C72.0551 141.799 72.0675 141.882 72.1239 142.059C72.131 142.076 72.1327 142.083 72.138 142.094C72.1468 142.117 72.1627 142.138 72.1751 142.159C72.1857 142.163 72.2545 142.24 72.258 142.244V142.244ZM75.5584 140.42C75.6749 140.526 75.8424 140.617 75.9924 140.669C76.2305 140.752 76.4016 140.804 76.5886 140.981C76.7156 141.11 76.728 141.35 76.5886 141.475C76.0559 141.953 75.1457 141.671 74.7047 141.171C74.3113 140.727 74.1437 140.18 74.1331 139.589C74.1225 138.855 75.2585 138.859 75.2691 139.589C75.2727 139.887 75.3291 140.208 75.5584 140.42V140.42ZM79.792 137.127C79.7885 137.262 79.7673 137.419 79.7973 137.55C79.8291 137.7 79.9173 137.82 79.9526 137.964C80.0266 138.271 80.0125 138.605 79.6685 138.705C79.2222 138.839 78.8924 138.367 78.7671 138.014C78.6666 137.728 78.6472 137.426 78.6384 137.127C78.6154 136.379 79.8114 136.379 79.792 137.127V137.127ZM82.1399 135.073C82.094 134.08 83.7222 134.08 83.6781 135.073C83.6622 135.435 83.6816 135.8 83.6481 136.153C83.6146 136.518 83.731 136.853 83.6252 137.211C83.5793 137.363 83.3976 137.495 83.2336 137.433C82.3251 137.067 82.1787 135.927 82.1399 135.073V135.073ZM87.6383 134.664C87.6207 134.828 87.6277 135.013 87.536 135.156C87.5219 135.179 87.5166 135.183 87.5113 135.19C87.5131 135.193 87.513 135.204 87.5078 135.237C87.476 135.405 87.4055 135.523 87.312 135.661C87.1585 135.883 86.8657 135.883 86.7122 135.661C86.6064 135.504 86.5411 135.373 86.5058 135.186C86.527 135.295 86.4405 135.029 86.4264 135.001C86.4 134.899 86.3982 134.772 86.3876 134.664C86.3047 133.858 87.7194 133.858 87.6383 134.664V134.664ZM86.4264 135.001C86.4264 135.004 86.4264 135.008 86.4282 135.013C86.4229 134.99 86.4229 134.99 86.4264 135.001ZM161.104 145.333C161.111 144.564 162.289 144.564 162.296 145.333C162.301 145.844 162.305 146.354 162.307 146.866C162.312 147.448 162.361 148.016 161.98 148.485C161.852 148.638 161.546 148.638 161.419 148.485C161.04 148.016 161.086 147.448 161.091 146.866C161.093 146.354 161.098 145.844 161.104 145.333ZM164.893 147.945C164.607 147.402 164.632 146.753 164.603 146.158C164.559 145.137 166.224 145.137 166.182 146.158C166.154 146.753 166.177 147.402 165.893 147.945C165.697 148.323 165.088 148.323 164.893 147.945V147.945ZM167.639 148.675C167.473 148.01 167.528 147.241 168.008 146.716C168.324 146.37 168.84 146.887 168.525 147.232C168.184 147.605 168.188 148.211 168.07 148.675C168.013 148.887 167.696 148.887 167.639 148.675V148.675ZM122.871 54.6242C122.839 54.8941 122.819 55.2134 122.555 55.3651C122.401 55.4568 122.207 55.4568 122.054 55.3651C121.627 55.1164 121.708 54.3685 121.791 53.9592C121.862 53.5852 122.042 53.273 122.301 52.9943C122.818 52.4422 123.656 53.2783 123.128 53.8269C122.906 54.0562 122.909 54.2979 122.871 54.6242V54.6242ZM118.57 53.2201C118.03 53.6029 117.642 54.1391 117.478 54.7865C117.319 55.4163 117.335 56.106 116.891 56.6175C116.732 56.7975 116.381 56.8063 116.227 56.6175C115.629 55.8943 115.869 54.8288 116.166 54.0192C116.481 53.1477 117.078 52.4845 117.831 51.9588C118.607 51.4155 119.329 52.682 118.57 53.2201V53.2201ZM114.372 56.0231C114.1 56.6352 114 57.2773 113.567 57.8065C113.38 58.0323 113.061 57.9141 112.916 57.7218C111.747 56.1413 113.714 53.9945 114.94 53.1566C115.762 52.5903 116.519 53.9222 115.716 54.4867C115.153 54.88 114.659 55.3916 114.372 56.0231V56.0231ZM109.115 56.637C108.678 57.0709 108.649 57.7377 108.145 58.1275C107.956 58.2757 107.654 58.2016 107.651 57.9229C107.647 57.2385 107.945 56.4411 108.408 55.9296C108.84 55.4515 109.575 56.1801 109.115 56.637ZM104.731 57.1785C103.897 58.0517 103.904 59.1701 103.341 60.1667C103.204 60.4031 102.823 60.4172 102.69 60.1667C102.024 58.8684 102.863 57.175 103.765 56.2118C104.365 55.5662 105.337 56.5399 104.731 57.1785V57.1785ZM101.244 58.3286C100.874 59.0484 100.63 59.8051 100.295 60.5354C100.06 61.0487 99.2383 60.897 99.1184 60.3819C98.8838 59.3764 99.4395 58.401 99.8628 57.5225C100.313 56.5999 101.713 57.4078 101.244 58.3286V58.3286ZM248.286 65.2188C248.116 65.2188 247.963 65.0742 247.968 64.9031C247.986 64.2892 248.633 63.7953 249.143 63.5554C249.79 63.2484 250.447 63.1161 251.159 63.1038C251.893 63.0897 251.89 64.2222 251.159 64.238C250.614 64.2469 250.064 64.3245 249.582 64.6049C249.184 64.836 248.764 65.2188 248.286 65.2188V65.2188ZM292.128 136.848C291.832 136.548 291.832 136.065 292.128 135.758C292.511 135.366 293.01 135.456 293.497 135.528C293.732 135.562 293.98 135.569 294.249 135.585C295.178 135.638 295.178 136.97 294.249 137.028C293.938 137.047 293.688 137.058 293.405 137.097C292.941 137.164 292.488 137.22 292.128 136.848V136.848ZM291.804 131.265C291.105 131.021 291.105 130.097 291.804 129.854C292.652 129.555 293.774 129.785 294.66 129.829C295.602 129.875 295.602 131.244 294.66 131.291C293.774 131.334 292.652 131.563 291.804 131.265V131.265ZM256.899 176.405C257.088 175.883 257.848 176.09 257.732 176.635C257.619 177.18 258.085 177.864 258.406 178.254C258.84 178.766 259.408 179.06 259.33 179.805C259.32 179.925 259.272 180.075 259.147 180.131C258.656 180.341 258.293 180.341 257.875 179.969C257.527 179.655 257.159 179.302 256.961 178.868C256.778 178.466 256.621 178.065 256.592 177.621C256.561 177.164 256.748 176.822 256.899 176.405V176.405ZM69.7866 66.8487C57.9562 77.02 49.4228 88.3449 45.7943 100.123C40.6469 116.803 38.2856 147.379 58.4035 164.184C85.5709 117.857 151.737 145.77 201.781 166.905C219.734 174.493 235.578 181.175 246.536 183.095C256.22 184.809 266.093 182.782 274.592 177.778C282.393 173.167 289.006 166.065 293.194 157.046C297.364 148.113 299.126 137.276 297.295 125.149C294.605 107.315 284.137 86.5702 262.1 64.6878C218.448 21.3093 114.991 28.0372 69.7866 66.8487" fill="white"/>
<path fill-rule="evenodd" clip-rule="evenodd" d="M33.0762 203.848C32.8075 204.097 32.492 204.294 32.2101 204.531C31.8959 204.797 31.6223 205.104 31.3468 205.402C31.1958 205.564 30.9485 205.392 30.9933 205.196C31.191 204.333 32.0185 203.952 32.5994 203.37C32.9088 203.065 33.3932 203.55 33.0762 203.848ZM33.0219 207.898C32.6043 208.316 32.1721 208.681 31.7098 209.047C31.5616 209.163 31.3887 208.988 31.5052 208.845C31.8703 208.378 32.2371 207.948 32.6553 207.533C32.8917 207.291 33.2582 207.66 33.0219 207.898V207.898ZM33.4008 198.837C33.7246 198.494 34.26 199.031 33.9176 199.355C33.48 199.766 33.066 200.216 32.5394 200.518C32.3466 200.629 32.1261 200.41 32.2371 200.216C32.5389 199.69 32.986 199.274 33.4008 198.837V198.837ZM33.9293 208.394C34.6266 207.667 35.7374 208.78 35.0311 209.495C34.2683 210.269 33.8439 211.294 33.0838 212.059C32.8495 212.296 32.5264 212.1 32.492 211.818C32.3293 210.491 33.0466 209.313 33.9293 208.394ZM34.2752 213.255C34.5343 212.986 34.9504 213.405 34.6846 213.659C34.4551 213.882 34.227 214.104 34.0279 214.356C33.7984 214.642 33.6324 214.963 33.378 215.229C33.2416 215.374 33.0404 215.221 33.0728 215.049C33.2023 214.349 33.7929 213.755 34.2752 213.255V213.255ZM42.5598 250.557C43.0828 249.977 43.7581 249.747 44.4319 249.46C44.9908 249.22 45.5413 249.712 45.263 250.287C44.9089 251.017 44.2247 251.435 43.5859 251.885C43.2068 252.152 42.6454 251.954 42.4275 251.58C42.2276 251.24 42.3035 250.839 42.5598 250.557ZM42.7376 246.082C43.5445 245.641 44.2695 246.891 43.4556 247.313C43.0435 247.526 42.7763 247.84 42.506 248.213C42.2471 248.58 42.0237 249.006 41.5573 249.121C41.3347 249.174 41.1666 249.051 41.0846 248.851C40.8724 248.341 41.2237 247.636 41.5227 247.221C41.8556 246.757 42.2338 246.362 42.7376 246.082ZM40.0826 243.686C40.7607 242.938 41.9315 244.11 41.1851 244.787C40.829 245.112 40.4561 245.466 40.113 245.77C39.9482 245.911 39.6748 245.948 39.5155 245.77C38.8836 245.053 39.5852 244.233 40.0826 243.686V243.686ZM98.494 385.791C99.5894 385.76 99.5894 387.511 98.494 387.48C97.4726 387.455 96.1602 387.625 95.3576 386.901C95.2094 386.766 95.2094 386.505 95.3576 386.369C96.1602 385.646 97.4726 385.819 98.494 385.791ZM93.3501 378.952C93.5636 378.955 93.7682 378.976 93.9834 378.976C94.8619 378.976 94.8619 380.345 93.9834 380.342C93.209 380.342 92.4964 380.087 92.0589 379.413C91.9125 379.192 92.1083 378.944 92.3394 378.922C92.6763 378.891 93.0238 378.944 93.3501 378.952V378.952ZM189.957 387.664C189.624 387.05 190.213 386.362 190.762 386.136C191.171 385.964 191.635 386.018 192.06 386.059C192.803 386.126 192.803 387.145 192.06 387.212C191.88 387.227 191.748 387.23 191.598 387.269C191.548 387.285 191.497 387.299 191.45 387.315C191.441 387.322 191.407 387.339 191.381 387.353C191.36 387.38 191.219 387.493 191.21 387.496C191.166 387.54 191.122 387.575 191.085 387.628C190.913 387.84 190.751 387.944 190.465 387.955C190.266 387.964 190.051 387.84 189.957 387.664V387.664ZM138.861 382.199C139.482 382.123 140.137 382.171 140.763 382.163C141.77 382.153 141.77 383.732 140.763 383.721C140.137 383.714 139.482 383.757 138.861 383.688C137.902 383.571 137.902 382.31 138.861 382.199V382.199ZM144.268 400.076C144.963 399.015 146.803 398.664 147.937 399.063C148.657 399.315 148.597 400.199 147.937 400.474C147.461 400.666 146.97 400.854 146.485 401.038C146.028 401.218 145.517 401.444 145.018 401.384C144.416 401.308 143.864 400.689 144.268 400.076ZM141.603 393.021C142.589 392.365 143.966 392.104 145.127 392.262C146.083 392.404 146.03 393.96 145.127 394.138C144.189 394.326 143.34 394.729 142.43 394.984C141.218 395.323 140.615 393.682 141.603 393.021ZM140.83 386.888C141.7 386.025 143.072 386.194 144.085 386.69C144.513 386.906 144.631 387.507 144.4 387.902C144.136 388.353 143.629 388.415 143.19 388.221C142.94 388.109 142.564 388.047 142.317 388.114C142.174 388.149 142.051 388.193 141.902 388.278C141.708 388.385 141.439 388.444 141.222 388.364C141.186 388.353 141.172 388.346 141.17 388.343C140.922 388.313 140.749 388.16 140.662 387.92C140.638 387.865 140.62 387.807 140.602 387.748C140.519 387.445 140.606 387.106 140.83 386.888V386.888ZM108.771 406.09C109.487 405.328 110.648 405.372 111.629 405.372C112.871 405.369 112.871 407.29 111.629 407.296C111.251 407.296 110.847 407.269 110.477 407.334C110.082 407.41 109.748 407.491 109.341 407.47C108.64 407.429 108.272 406.616 108.771 406.09ZM243.486 364.245C244.04 363.792 244.671 363.481 245.407 363.533C245.92 363.566 246.349 363.934 246.349 364.475C246.349 364.856 246.067 365.319 245.657 365.381C245.299 365.436 245.036 365.638 244.779 365.903C244.438 366.261 244.147 366.75 243.652 366.866C243.161 366.983 242.697 366.72 242.549 366.242C242.323 365.531 242.958 364.683 243.486 364.245ZM239.284 363.087C239.774 362.342 240.491 361.694 241.281 361.271C242.258 360.754 243.126 362.25 242.145 362.749C241.77 362.945 241.429 363.18 241.127 363.481C240.852 363.761 240.644 364.062 240.339 364.273C240.027 364.543 239.639 364.672 239.295 364.379C238.956 364.095 239.079 363.405 239.284 363.087V363.087ZM234.211 363.336C233.747 363.481 233.265 363.005 233.413 362.538C233.809 361.282 235.417 360.41 236.575 359.997C237.562 359.655 237.975 361.209 237.005 361.558C236.455 361.756 235.943 362.066 235.504 362.449C235.105 362.799 234.733 363.174 234.211 363.336V363.336ZM188.086 259.008C188.086 258.112 189.433 258.119 189.47 259.008C189.478 259.216 189.499 259.333 189.592 259.479C189.608 259.497 189.608 259.497 189.615 259.509C189.649 259.545 189.68 259.582 189.716 259.613C189.797 259.687 189.867 259.756 189.945 259.829C190.139 260.019 190.317 260.204 190.395 260.474C190.455 260.707 190.317 261.04 190.047 261.079C189.684 261.132 189.433 261.099 189.1 260.926C188.841 260.792 188.663 260.599 188.49 260.374C188.193 259.982 188.084 259.493 188.086 259.008V259.008ZM230.501 359.965C231.014 359.484 231.597 359.08 232.225 358.757C233.272 358.226 234.197 359.801 233.149 360.337C232.535 360.652 231.948 361.026 231.508 361.564C231.133 362.015 230.457 362.818 229.843 362.303C229.48 362.005 229.619 361.29 229.785 360.936C229.956 360.569 230.207 360.246 230.501 359.965ZM86.0913 226.685C86.2588 226.736 86.3277 226.911 86.3012 227.068C86.3559 227.225 86.3982 227.39 86.4388 227.549C86.5287 227.9 86.6875 228.345 86.3612 228.622C86.2024 228.754 86.0454 228.765 85.8602 228.687C85.4227 228.498 85.5074 227.925 85.5638 227.549C85.5885 227.39 85.6203 227.23 85.6714 227.076C85.6397 226.914 85.7085 226.736 85.8814 226.685C85.929 226.623 86.0401 226.623 86.0913 226.685V226.685ZM87.6277 227.808C87.8464 227.237 88.6544 227.576 88.4021 228.133C88.3439 228.269 88.3827 228.422 88.3915 228.56C88.418 228.941 87.8376 229.096 87.6683 228.754C87.596 228.611 87.5572 228.451 87.5501 228.294C87.5466 228.311 87.5448 228.331 87.5413 228.35C87.4584 228.669 86.975 228.669 86.8939 228.35C86.8657 228.242 86.8515 228.133 86.8374 228.027C86.7475 227.422 87.5871 227.399 87.5924 227.944C87.6048 227.9 87.6118 227.853 87.6277 227.808V227.808ZM88.8449 228.122C88.8272 227.981 89.0936 227.981 89.076 228.122C89.0654 228.216 89.0601 228.281 89.0177 228.366C88.9983 228.412 88.9243 228.412 88.9031 228.366C88.8625 228.281 88.8554 228.216 88.8449 228.122ZM89.4323 228.331C89.4111 227.75 90.3125 227.75 90.3355 228.331C90.3425 228.512 90.4148 228.638 90.4819 228.8C90.5507 228.967 90.5524 229.13 90.593 229.304C90.6265 229.454 90.4977 229.594 90.3443 229.551C90.0779 229.483 89.7992 229.414 89.6563 229.147C89.5169 228.888 89.4446 228.625 89.4323 228.331V228.331ZM162.666 244.385C163.323 243.781 164.406 244.062 165.006 244.619C165.582 245.163 164.702 246.043 164.131 245.491C163.977 245.341 163.845 245.283 163.624 245.265C163.268 245.24 162.933 245.149 162.666 244.903C162.525 244.773 162.525 244.519 162.666 244.385ZM150.456 181.175C150.879 180.914 151.365 180.941 151.844 180.941C152.504 180.941 152.504 181.96 151.844 181.96C151.365 181.96 150.879 181.978 150.456 181.724C150.251 181.597 150.251 181.301 150.456 181.175V181.175ZM186.2 375.034C186.892 374.374 187.943 375.42 187.248 376.08C186.772 376.531 185.731 376.956 185.166 376.459C185.041 376.401 184.928 376.335 184.826 376.226C184.685 376.073 184.685 375.857 184.826 375.708C184.918 375.605 185.015 375.54 185.133 375.482C185.322 375.311 185.561 375.291 185.826 375.219C185.893 375.201 185.964 375.18 186.032 375.157C186.04 375.15 186.04 375.154 186.052 375.145C186.184 375.065 186.122 375.106 186.2 375.034V375.034ZM135.716 377.809C135.99 377.63 136.342 377.662 136.662 377.645C137.141 377.613 137.141 378.422 136.662 378.392C136.342 378.373 135.99 378.407 135.716 378.228C135.563 378.122 135.563 377.916 135.716 377.809ZM132.153 373.446C131.989 373.141 132.065 372.719 132.391 372.546C133.121 372.158 133.857 372.882 134.337 373.363C135.049 374.074 133.949 375.175 133.236 374.469C133.052 374.282 132.865 374.097 132.671 373.92C132.49 373.756 132.278 373.676 132.153 373.446V373.446ZM185.115 264.135C184.665 263.295 184.478 262.418 184.512 261.471C184.561 260.197 186.387 260.22 186.475 261.471C186.51 262.014 186.634 262.602 186.936 263.067C187.251 263.554 187.779 264.135 187.733 264.754C187.717 264.948 187.634 265.182 187.437 265.267C186.514 265.669 185.546 264.935 185.115 264.135V264.135ZM135.499 225.663C135.492 225.219 136.201 225.219 136.192 225.663C136.187 225.865 136.192 226.066 136.152 226.261C136.088 226.565 135.603 226.565 135.54 226.261C135.497 226.066 135.501 225.865 135.499 225.663ZM134.215 226.51C134.169 226.357 134.444 226.357 134.398 226.51C134.391 226.542 134.381 226.572 134.372 226.604C134.353 226.671 134.261 226.671 134.24 226.604C134.233 226.572 134.226 226.542 134.215 226.51V226.51ZM156.187 192.045C156.3 190.955 157.916 190.583 158.823 190.569C159.768 190.548 159.763 191.994 158.823 192.028C158.482 192.043 158.133 192.121 157.831 192.282C157.51 192.458 157.239 192.731 156.845 192.707C156.519 192.684 156.15 192.421 156.187 192.045V192.045ZM155.258 187.979C155.646 187.972 156.143 187.972 156.445 187.688C156.882 187.282 157.54 187.946 157.096 188.341C156.591 188.792 155.91 188.866 155.258 188.866C154.684 188.866 154.686 187.999 155.258 187.979ZM172.488 269.649C172.825 269.691 172.928 269.864 173.217 269.977C173.295 270.005 173.346 270.144 173.243 270.183C172.935 270.323 172.642 270.559 172.319 270.712C171.968 270.878 171.599 270.996 171.238 271.139C170.509 271.43 169.514 271.887 168.8 271.388C168.539 271.208 168.456 270.917 168.601 270.63C169.015 269.806 170.209 269.721 171.035 269.642C171.536 269.589 171.991 269.587 172.488 269.649V269.649ZM194.93 253.457C194.154 253.42 194.15 252.21 194.93 252.245C195.251 252.261 195.505 252.377 195.796 252.49C196.172 252.633 196.549 252.702 196.846 252.993C196.99 253.132 196.999 253.395 196.846 253.538C196.502 253.845 196.061 253.865 195.63 253.716C195.482 253.662 195.339 253.6 195.196 253.545C195.135 253.519 195.073 253.498 195.008 253.48C194.976 253.469 194.964 253.464 194.957 253.461C194.946 253.461 194.944 253.461 194.93 253.457V253.457ZM152.762 185.638C152.688 185.462 152.712 185.312 152.748 185.137C152.774 184.199 153.88 183.67 154.721 183.65C155.586 183.624 155.589 184.989 154.721 184.994C154.508 184.994 154.268 185.058 154.183 185.12C154.005 185.263 153.811 185.492 153.566 185.635C153.446 185.739 153.335 185.827 153.162 185.868C152.973 185.912 152.834 185.808 152.762 185.638V185.638ZM166.396 265.957C166.235 265.833 166.138 265.669 166.194 265.458C166.531 264.15 168.793 263.907 169.902 263.889C171.019 263.866 171.017 265.593 169.902 265.618C169.23 265.636 168.609 265.796 167.978 266.022C167.458 266.205 166.868 266.315 166.396 265.957V265.957ZM136.432 224.743C136.372 223.91 137.78 223.91 137.722 224.743C137.695 225.095 137.716 225.499 137.491 225.787C137.26 226.094 136.894 226.094 136.662 225.787C136.436 225.499 136.457 225.095 136.432 224.743ZM165.609 260.155C165.459 260.084 165.392 259.874 165.44 259.728C165.806 258.497 167.66 258.666 168.673 258.68C169.627 258.687 169.627 260.146 168.673 260.162C168.098 260.166 167.537 260.208 166.964 260.259C166.419 260.308 166.053 260.347 165.609 260.155V260.155ZM138.059 224.887C137.974 224.508 138.034 224.152 138.327 223.877C138.63 223.587 139.228 223.682 139.322 224.139C139.375 224.399 139.359 224.628 139.295 224.887C139.142 225.489 138.195 225.514 138.059 224.887ZM165.071 255.657C164.808 255.708 164.566 255.5 164.633 255.219C165.036 253.618 167.145 253.378 168.468 253.745C169.437 254.011 169.015 255.544 168.054 255.246C166.93 254.893 166.138 255.456 165.071 255.657ZM191.12 255.846C190.42 255.175 191.48 254.117 192.18 254.785C192.63 255.216 193.258 255.449 193.642 255.948C193.868 256.241 193.93 256.623 193.642 256.911C193.42 257.138 193.094 257.156 192.82 257.019C192.224 256.719 191.6 256.309 191.12 255.846V255.846ZM199.883 248.438C200.335 248.479 200.672 248.493 201.011 248.825C201.194 249.006 201.194 249.313 201.011 249.493C200.663 249.839 200.243 249.883 199.769 249.883C199.386 249.88 199.007 249.876 198.624 249.873C197.708 249.866 197.708 248.456 198.624 248.449C199.038 248.446 199.472 248.407 199.883 248.438V248.438ZM187.273 381.555C185.988 381.942 185.112 379.964 186.352 379.362C187.571 378.775 188.897 378.385 190.201 378.038C191.079 377.809 191.713 379.163 190.834 379.555C189.592 380.11 188.601 381.158 187.273 381.555V381.555ZM182.148 372.213C182.614 371.119 184.424 370.655 185.494 370.624C186.56 370.597 186.56 372.262 185.494 372.278C185.076 372.285 184.662 372.393 184.274 372.55C183.81 372.746 183.422 373.104 182.931 373.23C182.287 373.395 181.924 372.749 182.148 372.213ZM179.61 368.23C179.365 366.848 181.587 366.221 182.621 366.187C183.588 366.155 183.589 367.679 182.621 367.688C182.217 367.692 181.786 367.771 181.428 367.963C181.058 368.161 180.79 368.581 180.384 368.671C180.075 368.738 179.671 368.581 179.61 368.23V368.23ZM178.516 363.597C178.654 363.589 178.793 363.577 178.929 363.566C179.038 363.562 179.038 363.751 178.929 363.741C178.793 363.733 178.654 363.723 178.516 363.712C178.442 363.709 178.442 363.601 178.516 363.597ZM176.355 357.844C176.867 357.609 177.459 357.694 177.766 358.212C178.022 358.65 177.911 359.401 177.396 359.62C176.789 359.877 176.147 360.024 175.489 359.832C174.939 359.668 174.496 359.426 174.291 358.948C174.295 358.963 174.297 358.972 174.302 358.988C174.282 358.957 174.261 358.93 174.24 358.897C173.82 358.277 174.517 357.406 175.214 357.636C175.221 357.636 175.226 357.639 175.231 357.639C175.463 357.667 175.657 357.771 175.904 357.836C176.055 357.875 176.195 357.916 176.355 357.844ZM117.393 211.391C115.744 209.747 116.979 206.155 117.139 204.183C117.341 201.726 119.496 199.389 121.414 198.064C123.458 196.649 126.291 195.464 128.72 196.619C130.025 196.944 131.22 197.787 132.243 199.013C132.991 199.708 133.582 200.518 133.79 201.47C134.896 203.732 135.563 206.621 135.563 209.72C135.563 213.023 134.813 216.02 133.606 218.219C132.299 220.613 130.38 222.097 128.217 222.097C125.808 222.097 123.68 220.419 122.197 217.697C120.907 215.374 120.119 212.238 120.119 208.835C120.119 205.556 120.872 202.555 122.073 200.354C122.382 199.786 122.724 199.274 123.098 198.819C122.347 199.188 121.638 199.701 121.015 200.348C119.551 201.853 118.311 203.663 117.981 205.787C117.704 207.591 118.261 209.327 118.103 211.096C118.069 211.444 117.669 211.663 117.393 211.391ZM104.645 399.474C104.564 399.174 104.74 398.664 104.973 398.479C105.688 397.884 106.603 397.477 107.524 397.378C108.217 397.301 108.457 398.223 108.053 398.657C107.665 399.073 107.118 399.422 106.603 399.657C106.136 399.865 105.744 400.01 105.284 399.887C105.014 399.85 104.728 399.765 104.645 399.474V399.474ZM101.708 395.094C101.505 395.043 101.479 394.806 101.595 394.66C102.366 393.689 103.747 393.321 104.876 392.935C105.733 392.642 106.102 394 105.248 394.288C104.125 394.671 102.934 395.401 101.708 395.094V395.094ZM98.4992 390.629C98.9861 389.368 101.091 389.58 102.188 389.58C103.156 389.58 103.156 391.079 102.188 391.079C101.542 391.079 100.87 391.052 100.231 391.172C99.7005 391.275 99.1749 391.428 98.6933 391.103C98.5451 391.007 98.4287 390.807 98.4992 390.629V390.629ZM101.433 288.4C101.955 287.301 103.213 287.089 104.225 287.949C104.257 287.98 116.804 298.867 130.729 286.656C131.583 285.904 132.876 286.271 133.642 287.476C134.409 288.663 134.342 290.235 133.504 290.968C117.415 305.064 102.339 292.013 102.306 291.978C101.293 291.103 100.889 289.515 101.433 288.4V288.4ZM100.281 240.483C102.498 235.094 106.074 231.516 110.489 231.03C115.042 230.522 119.477 233.332 122.98 238.303C126.28 242.965 128.738 249.559 129.56 257.01C130.398 264.389 129.489 271.268 127.362 276.415C125.127 281.805 121.549 285.384 117.152 285.869C112.601 286.394 108.15 283.567 104.643 278.592C101.382 273.99 98.9543 267.46 98.0812 260.1C98.0653 259.957 98.0459 259.804 98.0459 259.663C97.2644 252.388 98.1676 245.597 100.281 240.483V240.483ZM33.6357 196.021C33.1321 196.261 32.6807 196.568 32.1922 196.827C31.2744 197.312 30.5625 196.222 31.1455 195.471C31.9924 194.388 33.9809 193.903 35.0815 194.799C35.193 194.89 35.1785 195.088 35.0815 195.183C34.6604 195.591 34.1554 195.771 33.6357 196.021ZM103.322 202.417C104.283 204.592 104.871 207.295 104.871 210.197C104.871 213.494 104.119 216.494 102.913 218.674C101.59 221.082 99.6882 222.568 97.5061 222.568C95.1159 222.568 92.9868 220.89 91.4856 218.168C90.212 215.831 89.4111 212.707 89.4111 209.306C89.4111 206.005 90.159 203.005 91.3639 200.825C91.7855 200.059 92.2723 199.398 92.798 198.84C91.9601 199.209 91.1804 199.741 90.4907 200.435C88.8996 202.033 87.3437 204.03 86.7157 206.245C86.1195 208.336 86.6593 210.25 86.4317 212.329C86.4106 212.518 86.1759 212.668 86.0207 212.5C84.2126 210.497 85.2463 206.916 86.0595 204.677C87.0174 202.054 88.5926 199.519 90.9546 197.935C93.2425 196.4 95.8585 195.402 98.5257 196.681C100.692 197.725 102.923 199.946 103.322 202.417V202.417ZM116.421 156.398C90.8064 156.398 74.9269 179.572 65.4348 203.201C55.8387 227.068 52.7504 251.162 52.698 252.944V252.961C52.6642 254.321 51.7217 255.212 50.5867 254.935C49.4518 254.655 48.5451 253.326 48.5629 251.947V251.861C48.5885 251.174 49.0309 247.373 50.0568 241.644C39.7443 234.02 40.4624 217.914 41.0936 203.721C41.5834 192.627 42.0183 182.955 36.5416 182.504C35.7374 182.449 34.9518 182.468 34.185 182.572C29.0197 183.306 24.4127 187.757 20.8365 194.576C17.1362 201.643 14.5902 211.137 13.7177 221.677C13.1418 228.706 13.2988 236.175 14.3469 243.697C18.0003 269.576 32.5911 292.193 37.981 299.831C38.1913 297.223 38.5005 294.782 38.9133 292.568C39.1579 291.277 40.2576 290.651 41.3733 291.191C42.4896 291.714 43.1883 293.214 42.9615 294.505C40.2922 308.778 42.1072 332.72 48.6153 355.508C52.5926 369.412 58.2987 382.813 65.8017 393.229C73.1488 403.453 82.2387 410.784 93.1102 412.81C98.3969 413.801 104.137 413.543 110.313 411.781C113.629 410.836 116.713 411.525 119.625 412.875C116.952 409.056 114.922 404.847 113.005 400.608C110.666 395.44 108.025 390.564 105.024 385.744C103.061 382.594 100.921 379.564 98.9385 376.427C97.4179 374.016 95.5181 371.484 94.9765 368.639C94.9342 368.417 95.2023 368.221 95.3787 368.406C97.3668 370.497 98.6051 373.295 100.191 375.693C102.034 378.484 103.925 381.239 105.876 383.958C109.085 388.431 111.884 393.099 114.336 398.019C116.481 402.325 118.489 406.795 121.253 410.753C122.629 412.721 124.16 414.667 126.065 416.158C127.542 417.315 129.307 418.017 130.722 419.239C130.888 419.38 130.967 419.553 130.99 419.728C132.59 420.482 134.07 420.82 135.388 420.344C138.648 419.199 140.675 415.304 142.541 411.707C144.427 408.082 146.189 404.694 149.188 403.508C151.65 402.552 155.344 403.668 159.562 405.253C155.503 400.324 152.815 394.704 150.195 388.927C149.945 388.371 150.721 387.886 151.024 388.44C153.734 393.372 156.552 398.537 160.218 402.838C161.548 404.397 162.991 405.933 164.632 407.198C169.758 409.144 175.134 410.88 178.832 409.721C183.005 408.393 185.219 404.662 187.595 400.682C189.846 396.892 192.219 392.903 196.44 390.056C200.817 387.099 207.728 388.44 215.37 390.595C211.448 387.821 207.807 384.663 204.627 381.047C197.654 373.115 192.893 364.13 188.999 354.377C188.742 353.733 189.848 353.266 190.123 353.899C194.099 363.001 199.591 372.014 206.445 379.228C210.011 382.986 213.925 386.471 218.305 389.257C220.326 390.542 222.403 391.752 224.571 392.778C225.64 393.286 226.858 393.686 227.979 394.215C232.756 395.44 237.36 396.253 241.216 395.815C248.316 394.974 249.309 386.427 250.27 378.017C250.985 371.751 251.701 365.577 254.666 361.581C259.831 354.633 266.079 357.916 271.07 360.55C273.04 361.581 274.751 362.487 275.43 362.208C276.303 361.844 276.619 361.332 276.303 360.166C275.603 357.602 273.444 353.273 269.639 346.12C267.58 342.265 264.735 339.871 261.699 338.563C259.325 337.552 256.813 337.187 254.458 337.307C252.066 337.43 249.868 338.041 248.141 338.949C246.605 339.787 245.47 340.8 245.017 341.881C243.447 345.512 241.232 348.895 236.975 350.363C232.927 351.756 227.079 351.304 218.287 347.393C209.317 343.398 203.681 336.523 200.053 328.496C196.528 320.697 194.957 311.958 193.997 303.842C192.97 295.133 198.85 288.555 205.793 280.758C212.826 272.873 221.062 263.641 223.576 250.329C223.907 248.654 224.133 246.96 224.29 245.233C225.338 233.714 222.63 222.636 218.548 214.226C214.639 206.147 209.547 200.65 205.516 199.881C205.339 199.847 205.184 199.83 205.043 199.812C201.536 199.502 200.453 200.302 200.243 202.675C200.086 204.349 200.192 206.655 200.316 209.602C200.488 213.719 200.714 218.985 200.437 225.565C199.442 248.775 179.412 255.124 179.359 255.142C179.17 255.203 178.976 255.219 178.781 255.209C181.002 266.015 182.559 269.257 182.568 269.277C183.18 270.585 182.884 272.071 181.924 272.593C180.945 273.117 179.671 272.485 179.063 271.176C179.043 271.143 173.286 259.121 168.156 208.692C166.431 191.805 160.287 180.323 152.836 172.558C139.323 158.436 121.599 156.308 118.087 156.418C118.02 156.425 117.958 156.435 117.887 156.435C117.432 156.418 116.942 156.398 116.421 156.398" fill="white"/>
<path fill-rule="evenodd" clip-rule="evenodd" d="M122.837 241.238C120.378 237.749 117.358 235.757 114.342 236.106C111.182 236.452 108.528 239.211 106.801 243.399C104.989 247.796 104.222 253.709 104.938 260.081C105.631 266.377 107.639 271.873 110.327 275.678C112.789 279.153 115.823 281.141 118.824 280.81C121.999 280.464 124.652 277.687 126.362 273.517C128.194 269.1 128.962 263.207 128.247 256.819C127.531 250.518 125.525 245.022 122.837 241.238Z" fill="#341B30"/>
<path fill-rule="evenodd" clip-rule="evenodd" d="M102.142 215.342C102.98 213.82 103.507 211.678 103.507 209.306C103.507 207.018 103.015 205.03 102.249 203.635C101.708 202.638 101.008 202.029 100.277 202.029C99.3336 202.029 98.4093 202.832 97.6931 204.155C96.8411 205.676 96.3331 207.821 96.3331 210.197C96.3331 212.462 96.804 214.469 97.5714 215.849C98.1129 216.859 98.8115 217.47 99.5418 217.47C100.487 217.47 101.412 216.651 102.142 215.342" fill="#341B30"/>
<path fill-rule="evenodd" clip-rule="evenodd" d="M128.385 203.687C127.547 205.22 127.027 207.35 127.027 209.72C127.027 212.012 127.496 214 128.261 215.393C128.822 216.388 129.519 217.016 130.255 217.016C131.195 217.016 132.119 216.196 132.835 214.887C133.672 213.354 134.197 211.225 134.197 208.835C134.197 206.563 133.725 204.575 132.957 203.181C132.4 202.172 131.701 201.558 130.985 201.558C130.025 201.558 129.119 202.375 128.385 203.687" fill="#341B30"/>
<path fill-rule="evenodd" clip-rule="evenodd" d="M40.5836 283.874C27.4129 264.119 14.2414 223.818 29.3353 184.426C26.1311 186.455 23.2488 189.974 20.8365 194.576C17.1362 201.643 14.5902 211.137 13.7177 221.677C13.1418 228.706 13.2988 236.175 14.3469 243.697C18.0003 269.576 32.5911 292.193 37.981 299.831C38.1913 297.223 38.5005 294.782 38.9133 292.568C39.1572 291.288 40.2446 290.658 41.3539 291.184C41.7563 288.444 41.7688 285.657 40.5836 283.874" fill="white"/>
<path fill-rule="evenodd" clip-rule="evenodd" d="M242.549 366.242C242.323 365.531 242.958 364.683 243.486 364.245C244.04 363.792 244.671 363.481 245.407 363.533C245.92 363.566 246.349 363.934 246.349 364.475C246.349 364.856 246.067 365.319 245.657 365.381C245.299 365.436 245.036 365.638 244.779 365.903C244.438 366.261 244.147 366.75 243.652 366.866C243.161 366.983 242.697 366.72 242.549 366.242V366.242ZM239.295 364.379C238.956 364.095 239.079 363.405 239.284 363.087C239.774 362.342 240.491 361.694 241.281 361.271C242.258 360.754 243.126 362.25 242.145 362.749C241.77 362.945 241.429 363.18 241.127 363.481C240.852 363.761 240.644 364.062 240.339 364.273C240.027 364.543 239.639 364.672 239.295 364.379V364.379ZM234.211 363.336C233.747 363.481 233.265 363.005 233.413 362.538C233.809 361.281 235.417 360.41 236.575 359.997C237.562 359.655 237.975 361.209 237.005 361.558C236.455 361.756 235.943 362.066 235.504 362.449C235.105 362.799 234.733 363.174 234.211 363.336V363.336ZM231.508 361.564C231.133 362.015 230.457 362.818 229.843 362.303C229.48 362.005 229.619 361.29 229.785 360.936C229.956 360.569 230.207 360.246 230.501 359.965C231.014 359.484 231.597 359.08 232.225 358.757C233.272 358.226 234.197 359.801 233.149 360.337C232.535 360.652 231.948 361.026 231.508 361.564ZM236.975 350.363C232.927 351.756 227.079 351.304 218.287 347.393C209.317 343.398 203.681 336.523 200.053 328.496C196.528 320.697 194.957 311.958 193.997 303.842C192.97 295.133 198.85 288.555 205.793 280.758C212.826 272.873 221.062 263.641 223.576 250.329C223.907 248.654 224.133 246.96 224.29 245.233C225.338 233.714 222.63 222.636 218.548 214.226C215.138 207.177 210.824 202.095 207.105 200.403C216.308 217.711 218.194 238.343 210.268 254.194C200.665 273.399 181.091 286.324 181.458 302.943C181.829 319.565 190.323 346.894 209.158 360.556C227.437 373.818 218.936 384.644 213.692 385.949C215.172 387.134 216.708 388.241 218.305 389.257C220.326 390.542 222.403 391.752 224.571 392.778C225.64 393.286 226.858 393.686 227.979 394.215C232.756 395.44 237.36 396.253 241.216 395.815C248.316 394.974 249.309 386.427 250.27 378.017C250.985 371.751 251.701 365.577 254.666 361.581C259.831 354.633 266.079 357.916 271.07 360.55C273.04 361.581 274.751 362.487 275.43 362.208C276.303 361.844 276.619 361.332 276.303 360.166C275.603 357.602 273.444 353.273 269.639 346.12C267.58 342.265 264.735 339.871 261.699 338.563C259.325 337.552 256.813 337.187 254.458 337.307C252.066 337.43 249.868 338.041 248.141 338.949C246.605 339.787 245.47 340.8 245.017 341.881C243.447 345.512 241.232 348.895 236.975 350.363" fill="white"/>
<path fill-rule="evenodd" clip-rule="evenodd" d="M186.2 375.034C186.892 374.374 187.943 375.42 187.248 376.08C186.772 376.531 185.731 376.956 185.166 376.459C185.041 376.401 184.928 376.335 184.826 376.226C184.685 376.073 184.685 375.857 184.826 375.708C184.918 375.605 185.015 375.54 185.133 375.482C185.322 375.311 185.561 375.291 185.826 375.219C185.893 375.201 185.964 375.18 186.032 375.157C186.04 375.15 186.039 375.154 186.052 375.145C186.184 375.065 186.122 375.106 186.2 375.034V375.034ZM190.834 379.555C189.592 380.11 188.601 381.158 187.273 381.555C185.988 381.942 185.112 379.964 186.352 379.363C187.571 378.775 188.897 378.385 190.201 378.038C191.079 377.809 191.713 379.163 190.834 379.555V379.555ZM185.494 372.278C185.076 372.285 184.662 372.393 184.274 372.55C183.81 372.746 183.422 373.104 182.931 373.23C182.287 373.395 181.924 372.749 182.148 372.213C182.614 371.119 184.424 370.655 185.494 370.624C186.56 370.597 186.56 372.262 185.494 372.278ZM178.929 363.741C178.793 363.733 178.654 363.723 178.516 363.712C178.442 363.709 178.442 363.601 178.516 363.597C178.654 363.589 178.793 363.577 178.929 363.566C179.038 363.562 179.038 363.751 178.929 363.741ZM182.621 366.187C183.588 366.155 183.589 367.679 182.621 367.688C182.217 367.692 181.786 367.771 181.428 367.963C181.058 368.161 180.79 368.581 180.384 368.671C180.075 368.738 179.671 368.581 179.61 368.23C179.365 366.848 181.587 366.221 182.621 366.187V366.187ZM190.762 386.136C191.171 385.964 191.635 386.018 192.06 386.059C192.803 386.126 192.803 387.145 192.06 387.212C191.88 387.227 191.748 387.23 191.598 387.269C191.548 387.285 191.497 387.299 191.45 387.315C191.441 387.322 191.407 387.339 191.381 387.353C191.36 387.38 191.219 387.493 191.21 387.496C191.166 387.54 191.122 387.575 191.085 387.628C190.913 387.84 190.751 387.944 190.465 387.955C190.266 387.964 190.051 387.84 189.957 387.664C189.624 387.05 190.213 386.362 190.762 386.136V386.136ZM176.041 359.918C182.118 376.065 189.751 394.584 189.312 397.676C189.299 397.758 189.285 397.84 189.269 397.92C191.1 395.036 193.237 392.211 196.44 390.056C200.817 387.099 207.728 388.44 215.37 390.595C211.448 387.821 207.807 384.663 204.627 381.047C197.654 373.115 192.893 364.13 188.999 354.377C188.887 354.102 189.028 353.86 189.245 353.721C176.54 332.654 169.345 328.007 168.811 335.998C168.606 339.096 171.502 347.739 175.182 357.625C175.191 357.628 175.203 357.631 175.214 357.636C175.221 357.636 175.226 357.639 175.231 357.639C175.463 357.667 175.657 357.771 175.904 357.836C176.055 357.875 176.195 357.916 176.355 357.844C176.867 357.609 177.459 357.694 177.766 358.212C178.022 358.65 177.911 359.401 177.396 359.62C176.958 359.808 176.505 359.936 176.041 359.918" fill="white"/>
<path fill-rule="evenodd" clip-rule="evenodd" d="M140.763 383.721C140.137 383.714 139.482 383.757 138.861 383.688C137.902 383.571 137.902 382.31 138.861 382.199C139.482 382.123 140.137 382.171 140.763 382.163C141.77 382.153 141.77 383.732 140.763 383.721V383.721ZM142.317 388.114C142.174 388.149 142.051 388.193 141.902 388.278C141.708 388.385 141.439 388.444 141.222 388.364C141.186 388.353 141.172 388.346 141.17 388.343C140.922 388.313 140.749 388.16 140.662 387.92C140.638 387.865 140.62 387.807 140.602 387.748C140.519 387.445 140.606 387.106 140.83 386.888C141.7 386.025 143.072 386.194 144.085 386.69C144.513 386.906 144.631 387.507 144.4 387.902C144.136 388.353 143.629 388.415 143.19 388.221C142.94 388.109 142.564 388.047 142.317 388.114V388.114ZM136.662 378.392C136.342 378.373 135.99 378.407 135.716 378.228C135.563 378.122 135.563 377.916 135.716 377.809C135.99 377.63 136.342 377.662 136.662 377.645C137.141 377.613 137.141 378.422 136.662 378.392ZM132.671 373.92C132.49 373.756 132.278 373.676 132.153 373.446C131.989 373.141 132.065 372.719 132.391 372.546C133.121 372.158 133.857 372.882 134.337 373.364C135.049 374.074 133.949 375.175 133.236 374.469C133.052 374.282 132.865 374.097 132.671 373.92V373.92ZM145.018 401.384C144.416 401.308 143.864 400.689 144.268 400.076C144.963 399.015 146.803 398.664 147.937 399.063C148.657 399.315 148.597 400.199 147.937 400.474C147.461 400.666 146.97 400.854 146.485 401.038C146.028 401.218 145.517 401.444 145.018 401.384ZM145.127 394.138C144.189 394.326 143.34 394.729 142.43 394.984C141.218 395.323 140.615 393.682 141.603 393.021C142.589 392.365 143.966 392.104 145.127 392.262C146.083 392.404 146.03 393.96 145.127 394.138ZM159.562 405.253C155.503 400.324 152.815 394.704 150.195 388.927C150.112 388.747 150.137 388.572 150.22 388.444C142.381 375.54 128.284 354.55 124.494 353.73C120.244 352.802 139.819 388.627 136.309 401.926C133.612 412.15 124.472 410.691 120.394 409.467C120.671 409.901 120.957 410.333 121.253 410.753C122.629 412.721 124.16 414.667 126.065 416.158C127.542 417.315 129.307 418.017 130.722 419.239C130.888 419.38 130.967 419.553 130.99 419.728C132.59 420.482 134.07 420.82 135.388 420.344C138.648 419.199 140.675 415.304 142.541 411.707C144.427 408.082 146.189 404.694 149.188 403.508C151.65 402.552 155.344 403.668 159.562 405.253" fill="white"/>
<path fill-rule="evenodd" clip-rule="evenodd" d="M98.4939 385.791C99.5894 385.76 99.5894 387.511 98.4939 387.48C97.4726 387.455 96.1602 387.625 95.3575 386.901C95.2094 386.766 95.2094 386.505 95.3575 386.369C96.1602 385.646 97.4726 385.819 98.4939 385.791ZM104.645 399.474C104.564 399.174 104.74 398.664 104.973 398.479C105.688 397.884 106.603 397.477 107.524 397.378C108.217 397.301 108.457 398.223 108.053 398.657C107.665 399.073 107.118 399.422 106.603 399.657C106.136 399.865 105.744 400.01 105.284 399.887C105.014 399.85 104.728 399.765 104.645 399.474V399.474ZM101.708 395.094C101.505 395.043 101.479 394.806 101.595 394.66C102.366 393.689 103.747 393.321 104.876 392.935C105.733 392.642 106.102 394 105.248 394.288C104.125 394.671 102.934 395.401 101.708 395.094V395.094ZM100.231 391.172C99.7005 391.275 99.1748 391.428 98.6933 391.103C98.5451 391.007 98.4286 390.807 98.4992 390.629C98.9861 389.368 101.091 389.58 102.188 389.58C103.156 389.58 103.156 391.079 102.188 391.079C101.542 391.079 100.87 391.052 100.231 391.172V391.172ZM119.625 412.875C116.952 409.056 114.922 404.847 113.005 400.608C110.666 395.44 108.025 390.564 105.024 385.744C103.061 382.594 100.921 379.564 98.9385 376.427C97.5026 374.155 95.7368 371.775 95.0823 369.124C92.5863 365.753 89.9421 362.691 88.298 362.22C86.1706 361.613 89.1518 369.719 92.1541 378.99C92.2088 378.952 92.2723 378.928 92.3393 378.922C92.6763 378.891 93.0238 378.944 93.3501 378.952C93.5635 378.955 93.7682 378.976 93.9834 378.976C94.8618 378.976 94.8618 380.345 93.9834 380.342C93.4013 380.342 92.8527 380.199 92.4311 379.839C94.8107 387.253 97.1127 395.254 96.7934 400.076C96.3754 406.316 90.1079 409.862 80.0248 407.419C84.0573 410.074 88.418 411.938 93.1102 412.809C98.3969 413.801 104.137 413.543 110.313 411.781C113.629 410.836 116.713 411.525 119.625 412.875V412.875ZM108.771 406.09C109.487 405.328 110.648 405.372 111.629 405.372C112.871 405.369 112.871 407.29 111.629 407.296C111.251 407.296 110.847 407.269 110.477 407.334C110.082 407.41 109.748 407.491 109.341 407.47C108.64 407.429 108.272 406.616 108.771 406.09Z" fill="white"/>
<path fill-rule="evenodd" clip-rule="evenodd" d="M274.894 171.186C274.885 171.052 274.873 170.916 274.862 170.775C274.857 170.651 275.065 170.651 275.058 170.775C275.047 170.916 275.037 171.052 275.026 171.186C275.021 171.274 274.899 171.274 274.894 171.186V171.186ZM66.2304 145.745C66.2286 146.096 66.3098 146.37 66.6132 146.504C66.8072 146.592 67.0118 146.65 67.1194 146.846C67.2182 147.03 67.0806 147.201 66.9254 147.287C66.5197 147.513 65.9111 147.314 65.583 147.023C65.2319 146.703 65.1332 146.193 65.1155 145.745C65.0891 145.026 66.2339 145.022 66.2304 145.745ZM69.0616 141.944C69.2221 142.113 69.3826 142.281 69.5414 142.448C69.6931 142.609 69.806 142.777 69.9365 142.948C70.1429 143.225 70.344 143.671 70.0494 143.966C69.903 144.112 69.6508 144.147 69.4602 144.085C69.2592 144.017 69.118 143.89 68.9293 143.805C68.7564 143.729 68.5871 143.507 68.4495 143.378C68.3084 143.242 68.169 143.108 68.0279 142.976C67.3434 142.329 68.4142 141.256 69.0616 141.944ZM72.258 142.244C72.3232 142.295 72.4644 142.346 72.5843 142.415C72.699 142.486 72.8401 142.609 72.9071 142.722C72.9583 142.808 72.9636 142.934 72.9071 143.02C72.5984 143.495 71.8452 143.396 71.4447 143.099C70.9614 142.747 70.7921 142.224 70.7832 141.637C70.7691 140.82 72.0375 140.82 72.0533 141.637C72.0551 141.799 72.0675 141.882 72.1239 142.059C72.131 142.076 72.1327 142.083 72.138 142.094C72.1468 142.117 72.1627 142.138 72.175 142.159C72.1856 142.163 72.2544 142.24 72.258 142.244V142.244ZM75.5584 140.42C75.6748 140.526 75.8424 140.617 75.9923 140.669C76.2305 140.752 76.4016 140.804 76.5886 140.981C76.7156 141.11 76.7279 141.35 76.5886 141.475C76.0559 141.953 75.1456 141.671 74.7046 141.171C74.3113 140.727 74.1437 140.18 74.1331 139.589C74.1225 138.855 75.2585 138.859 75.2691 139.589C75.2726 139.887 75.3291 140.208 75.5584 140.42V140.42ZM79.792 137.127C79.7885 137.262 79.7673 137.419 79.7973 137.55C79.8291 137.7 79.9173 137.82 79.9525 137.964C80.0266 138.271 80.0125 138.605 79.6685 138.705C79.2222 138.839 78.8924 138.367 78.7671 138.014C78.6666 137.728 78.6472 137.426 78.6383 137.127C78.6154 136.379 79.8114 136.379 79.792 137.127V137.127ZM82.1399 135.073C82.094 134.08 83.7222 134.08 83.6781 135.073C83.6622 135.435 83.6816 135.8 83.6481 136.153C83.6146 136.518 83.731 136.853 83.6252 137.211C83.5793 137.363 83.3976 137.495 83.2336 137.433C82.3251 137.067 82.1787 135.927 82.1399 135.073V135.073ZM87.6383 134.664C87.6206 134.828 87.6277 135.013 87.536 135.156C87.5219 135.179 87.5166 135.183 87.5113 135.19C87.513 135.193 87.513 135.204 87.5077 135.237C87.476 135.405 87.4054 135.523 87.3119 135.661C87.1585 135.883 86.8656 135.883 86.7122 135.661C86.6063 135.504 86.5411 135.373 86.5058 135.186C86.527 135.295 86.4405 135.029 86.4264 135.001C86.4 134.899 86.3982 134.772 86.3876 134.664C86.3047 133.858 87.7194 133.858 87.6383 134.664V134.664ZM86.4264 135.001C86.4264 135.004 86.4264 135.008 86.4282 135.013C86.4229 134.99 86.4229 134.99 86.4264 135.001ZM167.639 148.675C167.473 148.01 167.528 147.241 168.008 146.716C168.324 146.37 168.841 146.887 168.525 147.232C168.184 147.605 168.188 148.211 168.07 148.675C168.013 148.887 167.696 148.887 167.639 148.675V148.675ZM161.091 146.866C161.093 146.354 161.098 145.844 161.104 145.333C161.111 144.564 162.289 144.564 162.296 145.333C162.301 145.844 162.305 146.354 162.307 146.866C162.312 147.448 162.361 148.016 161.98 148.485C161.852 148.638 161.546 148.638 161.419 148.485C161.04 148.016 161.086 147.448 161.091 146.866ZM261.828 174.957C262.391 174.977 262.902 175.13 263.391 175.404C263.835 175.65 264.409 176.033 264.321 176.61C264.227 177.222 263.424 177.037 263.045 176.884C262.62 176.716 262.303 176.457 261.828 176.443C260.875 176.413 260.874 174.931 261.828 174.957V174.957ZM267.083 173.782C267.039 173.461 267.208 173.142 267.575 173.142C267.852 173.142 268.087 173.371 268.085 173.648C268.081 173.98 268.439 174.001 268.579 174.246C268.704 174.462 268.653 174.666 268.434 174.797C267.854 175.137 267.152 174.287 267.083 173.782V173.782ZM291.772 128.857C291.444 128.993 291.128 128.887 290.994 128.559C290.816 128.112 291.37 127.74 291.714 127.633C292.003 127.537 292.306 127.522 292.608 127.522C293.352 127.522 293.352 128.675 292.608 128.675C292.282 128.675 292.075 128.733 291.772 128.857V128.857ZM270.135 170.775C270.106 169.847 271.576 169.845 271.579 170.775C271.579 171.001 271.56 170.978 271.639 171.17C271.588 171.043 271.703 171.209 271.685 171.209C271.71 171.23 271.736 171.248 271.735 171.248C271.846 171.308 271.955 171.369 272.015 171.387C272.23 171.466 272.35 171.599 272.468 171.784C272.548 171.906 272.557 172.11 272.468 172.228C272.045 172.835 271.235 172.689 270.733 172.258C270.299 171.891 270.154 171.323 270.135 170.775V170.775ZM292.128 136.848C291.832 136.548 291.832 136.065 292.128 135.758C292.511 135.366 293.01 135.456 293.497 135.528C293.732 135.562 293.98 135.569 294.249 135.585C295.178 135.638 295.178 136.97 294.249 137.028C293.938 137.047 293.688 137.058 293.405 137.097C292.941 137.164 292.488 137.22 292.128 136.848V136.848ZM291.804 131.265C291.105 131.021 291.105 130.097 291.804 129.854C292.652 129.555 293.774 129.785 294.66 129.829C295.602 129.875 295.602 131.244 294.66 131.291C293.774 131.334 292.652 131.563 291.804 131.265V131.265ZM256.899 176.405C257.088 175.883 257.848 176.09 257.732 176.635C257.619 177.18 258.085 177.864 258.406 178.254C258.84 178.766 259.408 179.06 259.33 179.805C259.32 179.925 259.272 180.075 259.147 180.131C258.656 180.341 258.293 180.341 257.875 179.969C257.527 179.655 257.159 179.302 256.961 178.868C256.778 178.466 256.621 178.065 256.592 177.621C256.561 177.164 256.748 176.822 256.899 176.405V176.405ZM164.603 146.158C164.559 145.137 166.224 145.137 166.182 146.158C166.154 146.753 166.177 147.402 165.893 147.945C165.697 148.323 165.088 148.323 164.893 147.945C164.607 147.402 164.632 146.753 164.603 146.158V146.158ZM246.742 162.043C214.569 156.8 184.399 142.711 150.146 135.382C115.829 128.04 82.6832 123.66 61.1871 147.518C58.6681 150.316 52.0027 156.111 53.0942 158.808C54.0203 161.097 56.4176 162.523 58.4035 164.184C85.5709 117.857 151.737 145.77 201.781 166.905C219.734 174.493 235.578 181.175 246.536 183.095C256.22 184.809 266.093 182.782 274.592 177.778C282.393 173.167 289.006 166.065 293.194 157.046C297.364 148.113 299.126 137.276 297.295 125.149C295.66 114.304 291.147 102.377 282.903 89.7755C290.835 123.427 278.918 167.286 246.742 162.043" fill="white"/>
<path fill-rule="evenodd" clip-rule="evenodd" d="M93.5653 210.197C93.5653 212.462 94.0345 214.469 94.8019 215.849C95.3417 216.859 96.042 217.47 96.7723 217.47C97.2786 217.47 97.7795 217.235 98.247 216.812C98.0053 216.556 97.7778 216.231 97.5714 215.849C96.804 214.469 96.3331 212.462 96.3331 210.197C96.3331 207.821 96.8411 205.676 97.6931 204.155C98.0247 203.543 98.4005 203.044 98.8009 202.682C98.4022 202.266 97.963 202.029 97.5061 202.029C96.5641 202.029 95.638 202.832 94.9236 204.155C94.0681 205.676 93.5653 207.821 93.5653 210.197Z" fill="#E6E8CA"/>
<path fill-rule="evenodd" clip-rule="evenodd" d="M125.615 203.687C124.779 205.22 124.255 207.35 124.255 209.72C124.255 212.012 124.728 214 125.494 215.393C126.051 216.388 126.751 217.016 127.484 217.016C127.99 217.016 128.493 216.778 128.958 216.36C128.71 216.101 128.478 215.773 128.261 215.393C127.496 214 127.027 212.012 127.027 209.72C127.027 207.35 127.547 205.22 128.385 203.687C128.725 203.082 129.101 202.58 129.505 202.215C129.101 201.795 128.662 201.558 128.217 201.558C127.256 201.558 126.349 202.375 125.615 203.687" fill="#E6E8CA"/>
<path fill-rule="evenodd" clip-rule="evenodd" d="M111.57 236.106C108.411 236.452 105.76 239.211 104.033 243.399C102.22 247.796 101.45 253.709 102.165 260.081C102.863 266.377 104.871 271.873 107.557 275.678C110.016 279.153 113.054 281.141 116.053 280.81C116.298 280.78 116.541 280.741 116.778 280.686C114.474 280.161 112.227 278.361 110.327 275.678C107.639 271.873 105.631 266.377 104.938 260.081C104.222 253.709 104.989 247.796 106.801 243.399C108.401 239.525 110.791 236.877 113.638 236.223C112.952 236.067 112.262 236.027 111.57 236.106" fill="#E6E8CA"/>
<path fill-rule="evenodd" clip-rule="evenodd" d="M99.1607 163.832C82.5421 172.329 70.3546 191.163 66.2904 213.693C62.2279 236.219 71.092 238.068 74.7858 222.555C78.4796 207.046 84.0186 180.454 121.691 178.237C159.364 176.021 129.447 150.538 99.1607 163.832Z" fill="#F6F6EB"/>
<path fill-rule="evenodd" clip-rule="evenodd" d="M215.221 46.5381C181.776 39.3568 161.045 35.4478 121.872 46.0829C82.7009 56.7199 69.4532 71.4316 97.5326 64.7725C125.612 58.1134 171.292 45.3774 221.275 71.9767C271.258 98.5849 272.855 60.9535 215.221 46.5381Z" fill="#F6F6EB"/>
<path d="M259.873 119.095L252.751 117.883L259.778 73.22L268.052 74.6276L259.873 119.095ZM249.59 131.301C249.808 130.021 250.373 129.02 251.286 128.298C252.232 127.552 253.473 127.309 255.008 127.571C256.544 127.832 257.634 128.471 258.281 129.488C258.932 130.476 259.148 131.61 258.931 132.89C258.713 134.169 258.134 135.168 257.192 135.885C256.256 136.574 255.02 136.788 253.485 136.527C251.949 136.266 250.854 135.655 250.198 134.695C249.575 133.712 249.373 132.58 249.59 131.301Z" fill="black"/>
<path d="M70.7884 100.342V45.3887H88.7538C94.7171 45.3887 99.1959 46.6216 102.19 49.0875C105.209 51.5533 106.719 55.2017 106.719 60.0328C106.719 62.5993 105.99 64.8764 104.53 66.8642C103.071 68.8268 101.083 70.349 98.5668 71.431C101.536 72.2613 103.876 73.8465 105.587 76.1865C107.323 78.5014 108.191 81.2692 108.191 84.4899C108.191 89.4216 106.593 93.2964 103.398 96.1146C100.202 98.9327 95.6858 100.342 89.8483 100.342H70.7884ZM78.0349 74.6391V94.4161H89.9993C93.3709 94.4161 96.0255 93.5481 97.9629 91.8119C99.9256 90.0506 100.907 87.6351 100.907 84.5654C100.907 77.9479 97.3087 74.6391 90.1125 74.6391H78.0349ZM78.0349 68.8268H88.9802C92.1506 68.8268 94.6794 68.0342 96.5665 66.449C98.4788 64.8638 99.4349 62.7125 99.4349 59.995C99.4349 56.9756 98.5542 54.7866 96.7929 53.4278C95.0316 52.044 92.3519 51.352 88.7538 51.352H78.0349V68.8268Z" fill="black"/>
<path d="M176.33 59.1403C176.33 65.9765 175.18 71.9502 172.88 77.0614C170.58 82.1407 167.321 86.022 163.104 88.7054C158.888 91.3888 153.968 92.7305 148.346 92.7305C142.851 92.7305 137.98 91.3888 133.731 88.7054C129.482 85.9901 126.176 82.1407 123.812 77.1573C121.48 72.1419 120.282 66.3439 120.218 59.7632V54.7318C120.218 48.0234 121.384 42.0976 123.716 36.9544C126.048 31.8113 129.339 27.882 133.587 25.1667C137.868 22.4194 142.755 21.0458 148.25 21.0458C153.84 21.0458 158.76 22.4034 163.009 25.1188C167.289 27.8022 170.58 31.7154 172.88 36.8586C175.18 41.9698 176.33 47.9275 176.33 54.7318V59.1403ZM167.177 54.636C167.177 46.3622 165.516 40.0211 162.194 35.6127C158.872 31.1724 154.224 28.9522 148.25 28.9522C142.436 28.9522 137.852 31.1724 134.498 35.6127C131.175 40.0211 129.466 46.1546 129.371 54.0131V59.1403C129.371 67.1585 131.048 73.4676 134.402 78.0677C137.788 82.6358 142.436 84.9199 148.346 84.9199C154.288 84.9199 158.888 82.7636 162.146 78.451C165.405 74.1065 167.082 67.8932 167.177 59.8111V54.636Z" fill="black"/>
<path d="M244.433 81.0548C243.091 88.9412 240.592 95.6069 236.936 101.052C233.285 106.46 228.765 110.298 223.373 112.566C217.982 114.834 212.044 115.417 205.558 114.313C199.219 113.235 193.862 110.731 189.488 106.802C185.119 102.835 182.06 97.7456 180.311 91.5327C178.605 85.2892 178.361 78.3654 179.579 70.7612L180.566 64.957C181.883 57.218 184.391 50.6107 188.091 45.1351C191.79 39.6595 196.357 35.7724 201.792 33.4738C207.269 31.1445 213.177 30.5191 219.516 31.5974C225.965 32.6946 231.374 35.2263 235.742 39.1926C240.154 43.1283 243.181 48.2885 244.825 54.6731C246.476 61.0209 246.633 68.1196 245.298 75.9691L244.433 81.0548ZM234.758 74.0624C236.382 64.5176 235.71 56.8764 232.743 51.1387C229.782 45.3642 224.855 41.8908 217.964 40.7184C211.257 39.5774 205.533 41.239 200.792 45.7032C196.094 50.1368 192.919 56.8771 191.266 65.924L190.26 71.8388C188.686 81.0888 189.383 88.6963 192.349 94.6613C195.359 100.596 200.273 104.143 207.091 105.303C213.945 106.469 219.675 104.884 224.28 100.548C228.892 96.176 232.046 89.3374 233.743 80.0325L234.758 74.0624Z" fill="black"/>
</svg>
