<svg width="824" height="599" viewBox="0 0 824 599" fill="none" xmlns="http://www.w3.org/2000/svg">
<g clip-path="url(#clip0)">
<path d="M376.827 501.812C340.753 513.081 337.706 523.639 363.528 550.907C327.083 541.778 319.5 549.359 328.629 585.81C301.359 559.986 290.802 563.026 279.532 599.105C268.263 563.026 257.703 559.986 230.433 585.81C239.569 549.359 231.984 541.778 195.535 550.907C221.36 523.639 218.314 513.081 182.238 501.812C218.314 490.543 221.36 479.983 195.535 452.711C231.984 461.84 239.569 454.264 230.433 417.813C239.815 426.697 247.21 432.146 253.347 434.025V437.725C233.406 447.637 220.618 468.168 220.618 490.493C220.618 522.982 247.045 549.411 279.532 549.411C312.016 549.411 338.449 522.982 338.449 490.493C338.449 468.168 325.654 447.637 305.719 437.725V434.028C311.854 432.149 319.25 426.697 328.629 417.813C319.5 454.264 327.083 461.84 363.528 452.711C337.706 479.983 340.753 490.543 376.827 501.812Z" fill="white"/>
<path d="M299.894 414.46H259.184C257.562 414.46 256.248 412.963 256.248 411.1C256.248 409.254 257.562 407.742 259.184 407.742H299.894C301.506 407.742 302.813 409.254 302.813 411.1C302.813 412.963 301.506 414.46 299.894 414.46Z" fill="white"/>
<path d="M299.894 405.077H259.184C257.562 405.077 256.248 403.562 256.248 401.717C256.248 399.858 257.562 398.351 259.184 398.351H263.535L267.918 389.433C267.918 389.433 270.037 386.559 271.129 386.248C272.211 385.928 284.743 384.539 288.623 386.248C288.623 386.248 290.518 386.791 291.999 389.658C293.139 391.845 295.545 396.333 296.625 398.351H299.894C301.506 398.351 302.813 399.858 302.813 401.717C302.813 403.562 301.506 405.077 299.894 405.077Z" fill="white"/>
<path d="M299.894 423.847H259.184C257.562 423.847 256.248 422.342 256.248 420.486C256.248 418.623 257.562 417.125 259.184 417.125H299.894C301.506 417.125 302.813 418.623 302.813 420.486C302.813 422.342 301.506 423.847 299.894 423.847Z" fill="white"/>
<path d="M293.516 482.982C293.928 483.811 294.004 484.45 293.744 484.873C293.489 485.297 293.225 485.506 292.955 485.506C292.35 485.506 291.522 484.671 291.125 483.89C290.537 482.726 290.598 481.286 290.813 480.043C292.102 480.968 293.008 481.954 293.516 482.982Z" fill="white"/>
<path d="M276.026 484.633C276.31 485.241 276.404 486.38 276.106 486.849L275.82 486.997C275.708 486.997 275.503 486.968 275.195 486.84C274.447 486.528 273.792 485.848 273.399 484.972C272.675 483.365 272.587 481.835 273.129 480.551L273.433 480.925C274.405 482.098 275.404 483.311 276.026 484.633Z" fill="white"/>
<path d="M263.033 466.564C268.546 454.692 273.308 441.454 277.577 426.134H283.752C287.762 440.513 292.195 453.021 297.29 464.342C293.235 466.225 290.088 469.757 288.33 474.362C285.54 473.222 282.676 472.811 279.641 473.122C277.089 473.371 274.939 473.985 273.239 474.938C271.598 472.993 267.711 468.798 263.033 466.564Z" fill="white"/>
<path d="M253.808 473.978L253.535 473.997C253.027 473.997 252.431 473.794 252.32 473.349C252.094 472.47 252.529 471.662 252.934 471.139C253.93 469.86 255.791 468.891 257.268 468.891L257.624 468.916C257.297 469.587 256.96 470.259 256.618 470.928C255.934 472.333 255.076 473.78 253.808 473.978Z" fill="white"/>
<path d="M306.3 472.745L306.279 472.751C306.147 472.751 305.735 472.582 304.779 471.028L304.703 470.902C304.106 469.728 303.511 468.519 302.896 467.238C304.24 467.374 305.358 467.845 306.042 468.573C306.634 469.207 306.899 470.048 306.832 471.073C306.756 472.233 306.46 472.668 306.3 472.745Z" fill="white"/>
<path d="M279.532 544.667C249.243 544.667 224.689 520.115 224.689 489.828C224.689 467.743 237.753 448.725 256.56 440.028V429.377C256.56 427.586 258.014 426.134 259.799 426.134H273.554C269.36 441.005 264.705 453.848 259.347 465.321C256.248 464.74 253.512 465.48 251.26 467.498C249.696 468.901 248.202 471.339 248.395 473.616C248.512 475.022 249.256 476.195 250.545 477.005C251.471 477.588 252.446 477.88 253.432 477.88C256.465 477.88 258.876 475.137 260.019 472.786C260.457 471.92 260.893 471.042 261.321 470.158C264.471 471.664 267.693 474.267 270.333 477.457C269.575 478.509 269.098 479.73 268.912 481.096C268.593 483.427 269.75 486.871 271.556 488.942C273.49 491.162 275.973 491.545 278.179 489.942C279.41 489.05 280.117 487.941 280.289 486.643C280.669 483.656 278.076 480.489 276.181 478.179L275.935 477.873C276.461 477.633 277.042 477.447 277.664 477.319C280.956 476.633 283.905 476.712 286.082 477.565C286.481 477.722 286.878 477.887 287.272 478.059C287.109 478.869 286.991 479.673 286.918 480.447C286.59 483.857 287.532 486.342 289.894 488.261C290.799 488.995 291.98 489.421 293.13 489.421C294.262 489.421 295.245 489.018 295.969 488.258C297.249 486.921 297.82 485.406 297.665 483.752C297.361 480.452 294.326 477.935 293.037 477.005C292.658 476.731 292.266 476.466 291.865 476.212C292.857 473.452 294.943 469.348 298.877 467.8C299.675 469.492 300.498 471.167 301.319 472.792L301.525 473.122C302.244 474.211 304.118 476.659 306.422 476.659C307.267 476.659 308.056 476.336 308.773 475.707C310.977 473.765 311.064 470.46 310.169 468.053C309.056 465.059 306.104 463.273 302.273 463.273C301.878 463.273 301.475 463.29 301.074 463.331C296.09 452.355 291.737 440.167 287.784 426.134H299.262C301.056 426.134 302.508 427.586 302.508 429.377V440.028C321.314 448.727 334.371 467.743 334.371 489.828C334.371 520.115 309.818 544.667 279.532 544.667Z" fill="white"/>
<path d="M276.016 389.873H283.049V-0.000457764H276.016V389.873Z" fill="white"/>
<path d="M129.593 414.46H88.8843C87.2628 414.46 85.9479 412.963 85.9479 411.1C85.9479 409.254 87.2628 407.742 88.8843 407.742H129.593C131.209 407.742 132.512 409.254 132.512 411.1C132.512 412.963 131.209 414.46 129.593 414.46Z" fill="#4F4C4C"/>
<path d="M129.593 405.077H88.8843C87.2628 405.077 85.9479 403.562 85.9479 401.717C85.9479 399.858 87.2628 398.351 88.8843 398.351H93.237L97.6171 389.433C97.6171 389.433 99.7358 386.559 100.831 386.248C101.911 385.928 114.443 384.539 118.322 386.248C118.322 386.248 120.217 386.791 121.697 389.658C122.84 391.845 125.243 396.333 126.326 398.351H129.593C131.209 398.351 132.512 399.858 132.512 401.717C132.512 403.562 131.209 405.077 129.593 405.077Z" fill="#4F4C4C"/>
<path d="M129.593 423.847H88.8843C87.2628 423.847 85.9479 422.342 85.9479 420.486C85.9479 418.623 87.2628 417.125 88.8843 417.125H129.593C131.209 417.125 132.512 418.623 132.512 420.486C132.512 422.342 131.209 423.847 129.593 423.847Z" fill="#4F4C4C"/>
<path d="M123.216 482.982C123.627 483.811 123.703 484.45 123.446 484.873C123.188 485.297 122.924 485.506 122.655 485.506C122.049 485.506 121.22 484.671 120.823 483.89C120.236 482.726 120.299 481.286 120.512 480.043C121.802 480.968 122.709 481.954 123.216 482.982Z" fill="#4F4C4C"/>
<path d="M105.727 484.633C106.01 485.241 106.103 486.38 105.807 486.849L105.52 486.997C105.407 486.997 105.204 486.968 104.895 486.84C104.145 486.528 103.491 485.848 103.098 484.972C102.376 483.365 102.287 481.835 102.828 480.551L103.133 480.925C104.104 482.098 105.105 483.311 105.727 484.633Z" fill="#4F4C4C"/>
<path d="M92.7335 466.564C98.2482 454.692 103.008 441.454 107.277 426.134H113.453C117.463 440.513 121.893 453.021 126.988 464.342C122.934 466.225 119.789 469.757 118.03 474.362C115.239 473.222 112.374 472.811 109.339 473.122C106.788 473.371 104.642 473.985 102.939 474.938C101.3 472.993 97.4103 468.798 92.7335 466.564Z" fill="#4F4C4C"/>
<path d="M83.5081 473.978L83.2341 473.997C82.7269 473.997 82.1304 473.794 82.0182 473.349C81.7921 472.47 82.2273 471.662 82.6316 471.139C83.6315 469.86 85.49 468.891 86.966 468.891L87.3249 468.916C86.9963 469.587 86.6596 470.259 86.3188 470.928C85.6367 472.333 84.776 473.78 83.5081 473.978Z" fill="#4F4C4C"/>
<path d="M136 472.745L135.978 472.751C135.849 472.751 135.435 472.582 134.479 471.028L134.403 470.902C133.805 469.728 133.212 468.519 132.594 467.238C133.941 467.374 135.06 467.845 135.743 468.573C136.334 469.207 136.6 470.048 136.529 471.073C136.454 472.233 136.159 472.668 136 472.745Z" fill="#4F4C4C"/>
<path d="M109.232 544.667C78.9418 544.667 54.3879 520.115 54.3879 489.828C54.3879 467.743 67.4507 448.725 86.2598 440.028V429.377C86.2598 427.586 87.7109 426.134 89.4974 426.134H103.253C99.0607 441.005 94.405 453.848 89.0478 465.321C85.9479 464.74 83.213 465.48 80.9607 467.498C79.3953 468.901 77.9001 471.339 78.0939 473.616C78.2114 475.022 78.9571 476.195 80.2431 477.005C81.1704 477.588 82.144 477.88 83.132 477.88C86.1628 477.88 88.5748 475.137 89.7178 472.786C90.1569 471.92 90.5922 471.042 91.0227 470.158C94.1705 471.664 97.3929 474.267 100.032 477.457C99.2739 478.509 98.7973 479.73 98.6116 481.096C98.29 483.427 99.4519 486.871 101.254 488.942C103.189 491.162 105.671 491.545 107.881 489.942C109.109 489.05 109.818 487.941 109.989 486.643C110.368 483.656 107.776 480.489 105.879 478.179L105.634 477.873C106.163 477.633 106.743 477.447 107.363 477.319C110.657 476.633 113.605 476.712 115.781 477.565C116.182 477.722 116.579 477.887 116.974 478.059C116.811 478.869 116.689 479.673 116.617 480.447C116.288 483.857 117.231 486.342 119.595 488.261C120.497 488.995 121.678 489.421 122.831 489.421C123.96 489.421 124.944 489.018 125.669 488.258C126.946 486.921 127.519 485.406 127.365 483.752C127.06 480.452 124.026 477.935 122.738 477.005C122.358 476.731 121.965 476.466 121.566 476.212C122.556 473.452 124.643 469.348 128.574 467.8C129.374 469.492 130.198 471.167 131.019 472.792L131.227 473.122C131.945 474.211 133.817 476.659 136.126 476.659C136.966 476.659 137.757 476.336 138.472 475.707C140.674 473.765 140.762 470.46 139.868 468.053C138.756 465.059 135.807 463.273 131.976 463.273C131.58 463.273 131.177 463.29 130.773 463.331C125.791 452.355 121.438 440.167 117.483 426.134H128.96C130.756 426.134 132.208 427.586 132.208 429.377V440.028C151.014 448.727 164.071 467.743 164.071 489.828C164.071 520.115 139.517 544.667 109.232 544.667Z" fill="#4F4C4C"/>
<path d="M105.717 389.873H112.749V-0.000457764H105.717V389.873Z" fill="#4F4C4C"/>
<path d="M466.721 414.46H426.013C424.389 414.46 423.074 412.963 423.074 411.1C423.074 409.254 424.389 407.742 426.013 407.742H466.721C468.335 407.742 469.639 409.254 469.639 411.1C469.639 412.963 468.335 414.46 466.721 414.46Z" fill="#4F4C4C"/>
<path d="M466.721 405.077H426.013C424.389 405.077 423.074 403.562 423.074 401.717C423.074 399.858 424.389 398.351 426.013 398.351H430.363L434.746 389.433C434.746 389.433 436.866 386.559 437.956 386.248C439.038 385.928 451.57 384.539 455.449 386.248C455.449 386.248 457.345 386.791 458.826 389.658C459.968 391.845 462.372 396.333 463.452 398.351H466.721C468.335 398.351 469.639 399.858 469.639 401.717C469.639 403.562 468.335 405.077 466.721 405.077Z" fill="#4F4C4C"/>
<path d="M466.721 423.847H426.013C424.389 423.847 423.074 422.342 423.074 420.486C423.074 418.623 424.389 417.125 426.013 417.125H466.721C468.335 417.125 469.639 418.623 469.639 420.486C469.639 422.342 468.335 423.847 466.721 423.847Z" fill="#4F4C4C"/>
<path d="M460.343 482.982C460.756 483.811 460.831 484.45 460.572 484.873C460.316 485.297 460.052 485.506 459.783 485.506C459.177 485.506 458.349 484.671 457.951 483.89C457.365 482.726 457.425 481.286 457.64 480.043C458.931 480.968 459.836 481.954 460.343 482.982Z" fill="#4F4C4C"/>
<path d="M442.853 484.633C443.137 485.241 443.232 486.38 442.935 486.849L442.647 486.997C442.534 486.997 442.331 486.968 442.023 486.84C441.274 486.528 440.619 485.848 440.226 484.972C439.502 483.365 439.414 481.835 439.956 480.551L440.261 480.925C441.232 482.098 442.231 483.311 442.853 484.633Z" fill="#4F4C4C"/>
<path d="M429.862 466.564C435.375 454.692 440.135 441.454 444.404 426.134H450.581C454.589 440.513 459.022 453.021 464.116 464.342C460.062 466.225 456.917 469.757 455.157 474.362C452.366 473.222 449.503 472.811 446.468 473.122C443.916 473.371 441.768 473.985 440.066 474.938C438.427 472.993 434.536 468.798 429.862 466.564Z" fill="#4F4C4C"/>
<path d="M420.635 473.978L420.362 473.997C419.855 473.997 419.258 473.794 419.147 473.349C418.921 472.47 419.356 471.662 419.76 471.139C420.759 469.86 422.618 468.891 424.095 468.891L424.453 468.916C424.121 469.587 423.786 470.259 423.447 470.928C422.763 472.333 421.903 473.78 420.635 473.978Z" fill="#4F4C4C"/>
<path d="M473.128 472.745L473.107 472.751C472.974 472.751 472.562 472.582 471.606 471.028L471.53 470.902C470.934 469.728 470.339 468.519 469.723 467.238C471.069 467.374 472.185 467.845 472.87 468.573C473.459 469.207 473.726 470.048 473.659 471.073C473.583 472.233 473.286 472.668 473.128 472.745Z" fill="#4F4C4C"/>
<path d="M446.361 544.667C416.07 544.667 391.517 520.115 391.517 489.828C391.517 467.743 404.58 448.725 423.387 440.028V429.377C423.387 427.586 424.841 426.134 426.623 426.134H440.381C436.187 441.005 431.532 453.848 426.174 465.321C423.073 464.74 420.338 465.48 418.087 467.498C416.523 468.901 415.028 471.339 415.222 473.616C415.339 475.022 416.085 476.195 417.372 477.005C418.298 477.588 419.273 477.88 420.259 477.88C423.292 477.88 425.703 475.137 426.846 472.786C427.285 471.92 427.72 471.042 428.15 470.158C431.298 471.664 434.521 474.267 437.16 477.457C436.402 478.509 435.925 479.73 435.741 481.096C435.42 483.427 436.579 486.871 438.383 488.942C440.317 491.162 442.799 491.545 445.008 489.942C446.237 489.05 446.944 487.941 447.116 486.643C447.496 483.656 444.903 480.489 443.008 478.179L442.762 477.873C443.29 477.633 443.871 477.447 444.491 477.319C447.782 476.633 450.733 476.712 452.909 477.565C453.308 477.722 453.706 477.887 454.099 478.059C453.938 478.869 453.819 479.673 453.745 480.447C453.417 483.857 454.359 486.342 456.721 488.261C457.626 488.995 458.806 489.421 459.958 489.421C461.089 489.421 462.071 489.018 462.797 488.258C464.076 486.921 464.647 485.406 464.492 483.752C464.188 480.452 461.153 477.935 459.865 477.005C459.485 476.731 459.093 476.466 458.692 476.212C459.684 473.452 461.77 469.348 465.703 467.8C466.502 469.492 467.324 471.167 468.148 472.792L468.354 473.122C469.071 474.211 470.945 476.659 473.251 476.659C474.094 476.659 474.883 476.336 475.6 475.707C477.803 473.765 477.891 470.46 476.995 468.053C475.884 465.059 472.933 463.273 469.102 463.273C468.705 463.273 468.302 463.29 467.901 463.331C462.917 452.355 458.566 440.167 454.61 426.134H466.089C467.883 426.134 469.335 427.586 469.335 429.377V440.028C488.141 448.727 501.199 467.743 501.199 489.828C501.199 520.115 476.644 544.667 446.361 544.667Z" fill="#4F4C4C"/>
<path d="M442.845 389.873H449.876V-0.000457764H442.845V389.873Z" fill="#4F4C4C"/>
<path d="M600.925 414.46H560.217C558.593 414.46 557.28 412.963 557.28 411.1C557.28 409.254 558.593 407.742 560.217 407.742H600.925C602.539 407.742 603.845 409.254 603.845 411.1C603.845 412.963 602.539 414.46 600.925 414.46Z" fill="#4F4C4C"/>
<path d="M600.925 405.077H560.217C558.593 405.077 557.28 403.562 557.28 401.717C557.28 399.858 558.593 398.351 560.217 398.351H564.567L568.95 389.433C568.95 389.433 571.069 386.559 572.161 386.248C573.242 385.928 585.774 384.539 589.654 386.248C589.654 386.248 591.55 386.791 593.03 389.658C594.171 391.845 596.576 396.333 597.658 398.351H600.925C602.539 398.351 603.845 399.858 603.845 401.717C603.845 403.562 602.539 405.077 600.925 405.077Z" fill="#4F4C4C"/>
<path d="M600.925 423.847H560.217C558.593 423.847 557.28 422.342 557.28 420.486C557.28 418.623 558.593 417.125 560.217 417.125H600.925C602.539 417.125 603.845 418.623 603.845 420.486C603.845 422.342 602.539 423.847 600.925 423.847Z" fill="#4F4C4C"/>
<path d="M594.549 482.982C594.96 483.811 595.036 484.45 594.778 484.873C594.52 485.297 594.255 485.506 593.987 485.506C593.381 485.506 592.553 484.671 592.154 483.89C591.569 482.726 591.631 481.286 591.844 480.043C593.134 480.968 594.04 481.954 594.549 482.982Z" fill="#4F4C4C"/>
<path d="M577.058 484.633C577.34 485.241 577.436 486.38 577.137 486.849L576.852 486.997C576.738 486.997 576.535 486.968 576.229 486.84C575.478 486.528 574.823 485.848 574.43 484.972C573.709 483.365 573.62 481.835 574.161 480.551L574.465 480.925C575.438 482.098 576.436 483.311 577.058 484.633Z" fill="#4F4C4C"/>
<path d="M564.065 466.564C569.58 454.692 574.341 441.454 578.609 426.134H584.786C588.794 440.513 593.225 453.021 598.32 464.342C594.267 466.225 591.122 469.757 589.361 474.362C586.571 473.222 583.707 472.811 580.672 473.122C578.119 473.371 575.973 473.985 574.271 474.938C572.632 472.993 568.74 468.798 564.065 466.564Z" fill="#4F4C4C"/>
<path d="M554.842 473.978L554.566 473.997C554.059 473.997 553.462 473.794 553.351 473.349C553.124 472.47 553.559 471.662 553.963 471.139C554.964 469.86 556.822 468.891 558.299 468.891L558.657 468.916C558.326 469.587 557.99 470.259 557.651 470.928C556.967 472.333 556.107 473.78 554.842 473.978Z" fill="#4F4C4C"/>
<path d="M607.332 472.745L607.31 472.751C607.179 472.751 606.768 472.582 605.81 471.028L605.735 470.902C605.138 469.728 604.543 468.519 603.927 467.238C605.274 467.374 606.392 467.845 607.076 468.573C607.665 469.207 607.932 470.048 607.863 471.073C607.787 472.233 607.49 472.668 607.332 472.745Z" fill="#4F4C4C"/>
<path d="M580.566 544.667C550.274 544.667 525.721 520.115 525.721 489.828C525.721 467.743 538.782 448.725 557.591 440.028V429.377C557.591 427.586 559.044 426.134 560.829 426.134H574.585C570.393 441.005 565.736 453.848 560.378 465.321C557.28 464.74 554.545 465.48 552.293 467.498C550.73 468.901 549.234 471.339 549.427 473.616C549.543 475.022 550.29 476.195 551.576 477.005C552.505 477.588 553.476 477.88 554.463 477.88C557.496 477.88 559.907 475.137 561.051 472.786C561.489 471.92 561.924 471.042 562.354 470.158C565.502 471.664 568.727 474.267 571.364 477.457C570.606 478.509 570.13 479.73 569.946 481.096C569.624 483.427 570.783 486.871 572.587 488.942C574.521 491.162 577.003 491.545 579.213 489.942C580.442 489.05 581.15 487.941 581.321 486.643C581.701 483.656 579.108 480.489 577.213 478.179L576.967 477.873C577.493 477.633 578.076 477.447 578.695 477.319C581.988 476.633 584.937 476.712 587.114 477.565C587.515 477.722 587.91 477.887 588.305 478.059C588.142 478.869 588.022 479.673 587.951 480.447C587.621 483.857 588.563 486.342 590.926 488.261C591.83 488.995 593.01 489.421 594.162 489.421C595.294 489.421 596.276 489.018 596.999 488.258C598.28 486.921 598.851 485.406 598.695 483.752C598.392 480.452 595.359 477.935 594.069 477.005C593.687 476.731 593.297 476.466 592.896 476.212C593.889 473.452 595.974 469.348 599.905 467.8C600.708 469.492 601.528 471.167 602.352 472.792L602.559 473.122C603.276 474.211 605.15 476.659 607.456 476.659C608.299 476.659 609.088 476.336 609.805 475.707C612.008 473.765 612.095 470.46 611.199 468.053C610.087 465.059 607.138 463.273 603.307 463.273C602.909 463.273 602.507 463.29 602.105 463.331C597.121 452.355 592.771 440.167 588.817 426.134H600.294C602.088 426.134 603.539 427.586 603.539 429.377V440.028C622.345 448.727 635.405 467.743 635.405 489.828C635.405 520.115 610.849 544.667 580.566 544.667Z" fill="#4F4C4C"/>
<path d="M577.05 389.873H584.081V-0.000457764H577.05V389.873Z" fill="#4F4C4C"/>
<path d="M735.129 414.46H694.421C692.8 414.46 691.484 412.963 691.484 411.1C691.484 409.254 692.8 407.742 694.421 407.742H735.129C736.744 407.742 738.049 409.254 738.049 411.1C738.049 412.963 736.744 414.46 735.129 414.46Z" fill="#4F4C4C"/>
<path d="M735.129 405.077H694.421C692.8 405.077 691.484 403.562 691.484 401.717C691.484 399.858 692.8 398.351 694.421 398.351H698.772L703.153 389.433C703.153 389.433 705.273 386.559 706.367 386.248C707.446 385.928 719.977 384.539 723.858 386.248C723.858 386.248 725.754 386.791 727.235 389.658C728.373 391.845 730.781 396.333 731.862 398.351H735.129C736.744 398.351 738.049 399.858 738.049 401.717C738.049 403.562 736.744 405.077 735.129 405.077Z" fill="#4F4C4C"/>
<path d="M735.129 423.847H694.421C692.8 423.847 691.484 422.342 691.484 420.486C691.484 418.623 692.8 417.125 694.421 417.125H735.129C736.744 417.125 738.049 418.623 738.049 420.486C738.049 422.342 736.744 423.847 735.129 423.847Z" fill="#4F4C4C"/>
<path d="M728.753 482.982C729.164 483.811 729.24 484.45 728.982 484.873C728.724 485.297 728.459 485.506 728.191 485.506C727.585 485.506 726.757 484.671 726.358 483.89C725.773 482.726 725.835 481.286 726.048 480.043C727.338 480.968 728.246 481.954 728.753 482.982Z" fill="#4F4C4C"/>
<path d="M711.262 484.633C711.547 485.241 711.64 486.38 711.341 486.849L711.056 486.997C710.942 486.997 710.739 486.968 710.432 486.84C709.682 486.528 709.027 485.848 708.634 484.972C707.913 483.365 707.825 481.835 708.365 480.551L708.669 480.925C709.639 482.098 710.64 483.311 711.262 484.633Z" fill="#4F4C4C"/>
<path d="M698.27 466.564C703.784 454.692 708.545 441.454 712.812 426.134H718.99C722.998 440.513 727.43 453.021 732.524 464.342C728.471 466.225 725.325 469.757 723.566 474.362C720.777 473.222 717.911 472.811 714.876 473.122C712.323 473.371 710.179 473.985 708.475 474.938C706.836 472.993 702.945 468.798 698.27 466.564Z" fill="#4F4C4C"/>
<path d="M689.046 473.978L688.771 473.997C688.263 473.997 687.668 473.794 687.555 473.349C687.328 472.47 687.763 471.662 688.168 471.139C689.168 469.86 691.027 468.891 692.503 468.891L692.862 468.916C692.532 469.587 692.196 470.259 691.856 470.928C691.171 472.333 690.313 473.78 689.046 473.978Z" fill="#4F4C4C"/>
<path d="M741.536 472.745L741.514 472.751C741.383 472.751 740.97 472.582 740.015 471.028L739.939 470.902C739.342 469.728 738.747 468.519 738.131 467.238C739.478 467.374 740.596 467.845 741.28 468.573C741.87 469.207 742.137 470.048 742.067 471.073C741.992 472.233 741.695 472.668 741.536 472.745Z" fill="#4F4C4C"/>
<path d="M714.77 544.667C684.479 544.667 659.924 520.115 659.924 489.828C659.924 467.743 672.987 448.725 691.794 440.028V429.377C691.794 427.586 693.247 426.134 695.034 426.134H708.789C704.597 441.005 699.943 453.848 694.584 465.321C691.484 464.74 688.75 465.48 686.497 467.498C684.931 468.901 683.437 471.339 683.631 473.616C683.748 475.022 684.494 476.195 685.78 477.005C686.707 477.588 687.679 477.88 688.668 477.88C691.701 477.88 694.112 475.137 695.255 472.786C695.693 471.92 696.129 471.042 696.559 470.158C699.708 471.664 702.931 474.267 705.569 477.457C704.811 478.509 704.334 479.73 704.148 481.096C703.827 483.427 704.987 486.871 706.791 488.942C708.726 491.162 711.207 491.545 713.417 489.942C714.646 489.05 715.355 487.941 715.527 486.643C715.905 483.656 713.312 480.489 711.415 478.179L711.171 477.873C711.698 477.633 712.28 477.447 712.899 477.319C716.192 476.633 719.141 476.712 721.318 477.565C721.719 477.722 722.116 477.887 722.51 478.059C722.347 478.869 722.226 479.673 722.155 480.447C721.825 483.857 722.768 486.342 725.13 488.261C726.033 488.995 727.215 489.421 728.366 489.421C729.498 489.421 730.48 489.018 731.205 488.258C732.484 486.921 733.056 485.406 732.901 483.752C732.596 480.452 729.563 477.935 728.275 477.005C727.892 476.731 727.502 476.466 727.101 476.212C728.093 473.452 730.18 469.348 734.11 467.8C734.912 469.492 735.734 471.167 736.555 472.792L736.763 473.122C737.482 474.211 739.354 476.659 741.66 476.659C742.503 476.659 743.294 476.336 744.009 475.707C746.212 473.765 746.298 470.46 745.406 468.053C744.291 465.059 741.342 463.273 737.513 463.273C737.116 463.273 736.713 463.29 736.309 463.331C731.326 452.355 726.975 440.167 723.021 426.134H734.498C736.292 426.134 737.743 427.586 737.743 429.377V440.028C756.549 448.727 769.609 467.743 769.609 489.828C769.609 520.115 745.053 544.667 714.77 544.667Z" fill="#4F4C4C"/>
<path d="M711.254 389.873H718.285V-0.000457764H711.254V389.873Z" fill="#4F4C4C"/>
</g>
<defs>
<clipPath id="clip0">
<rect width="824" height="599" fill="white"/>
</clipPath>
</defs>
</svg>
